<svg width="90" height="90" viewBox="0 0 90 90" fill="none" xmlns="http://www.w3.org/2000/svg">
<path d="M45 5.625C37.2124 5.625 29.5996 7.9343 23.1244 12.2609C16.6493 16.5875 11.6025 22.737 8.62226 29.9318C5.64206 37.1267 4.8623 45.0437 6.3816 52.6817C7.90089 60.3197 11.651 67.3356 17.1577 72.8423C22.6644 78.349 29.6803 82.0991 37.3183 83.6184C44.9563 85.1377 52.8733 84.3579 60.0682 81.3777C67.263 78.3975 73.4126 73.3508 77.7391 66.8756C82.0657 60.4004 84.375 52.7876 84.375 45C84.375 34.5571 80.2266 24.5419 72.8423 17.1577C65.4581 9.77342 55.4429 5.625 45 5.625ZM66.0938 25.3125C68.0407 25.3125 69.9439 25.8898 71.5627 26.9715C73.1814 28.0531 74.4431 29.5905 75.1882 31.3892C75.9333 33.1879 76.1282 35.1672 75.7484 37.0767C75.3685 38.9862 74.431 40.7402 73.0543 42.1168C71.6777 43.4935 69.9237 44.431 68.0142 44.8109C66.1047 45.1907 64.1254 44.9957 62.3267 44.2507C60.528 43.5056 58.9906 42.2439 57.909 40.6251C56.8273 39.0063 56.25 37.1032 56.25 35.1562C56.253 32.5464 57.291 30.0444 59.1365 28.199C60.9819 26.3535 63.484 25.3155 66.0938 25.3125ZM67.3172 19.7494C66.9104 19.7127 66.5022 19.692 66.0938 19.6875C63.8919 19.6872 61.7155 20.1584 59.7109 21.0695C57.7064 21.9806 55.9202 23.3103 54.4725 24.9694C53.0815 21.7021 50.9378 18.8099 48.2163 16.5288C45.4948 14.2477 42.2726 12.6423 38.8125 11.8434C43.8513 10.8797 49.0446 11.0917 53.9881 12.463C58.9316 13.8342 63.4948 16.3277 67.3172 19.7494ZM45 78.75C42.775 78.75 40.5999 78.0902 38.7499 76.854C36.8998 75.6179 35.4579 73.8608 34.6064 71.8052C33.7549 69.7495 33.5321 67.4875 33.9662 65.3052C34.4003 63.1229 35.4717 61.1184 37.0451 59.545C38.6184 57.9717 40.623 56.9002 42.8052 56.4662C44.9875 56.0321 47.2495 56.2549 49.3052 57.1063C51.3609 57.9578 53.1179 59.3998 54.354 61.2498C55.5902 63.0999 56.25 65.275 56.25 67.5C56.2463 70.4825 55.0598 73.3419 52.9509 75.4508C50.8419 77.5598 47.9826 78.7463 45 78.75ZM33.75 50.625C30.4125 50.625 27.1498 49.6353 24.3748 47.781C21.5997 45.9268 19.4368 43.2913 18.1595 40.2078C16.8823 37.1243 16.5481 33.7313 17.1993 30.4578C17.8504 27.1844 19.4576 24.1776 21.8176 21.8176C24.1776 19.4576 27.1844 17.8504 30.4579 17.1992C33.7313 16.5481 37.1243 16.8823 40.2078 18.1595C43.2913 19.4368 45.9268 21.5997 47.7811 24.3748C49.6353 27.1498 50.625 30.4124 50.625 33.75C50.6198 38.2239 48.8402 42.5131 45.6767 45.6767C42.5131 48.8402 38.2239 50.6198 33.75 50.625ZM11.25 45C11.2568 42.9245 11.4554 40.8542 11.8435 38.8153C12.9421 43.5573 15.5504 47.8144 19.2762 50.9468C23.002 54.0792 27.6439 55.9175 32.5041 56.1853C30.1934 58.7168 28.7145 61.8959 28.2669 65.2941C27.8193 68.6922 28.4245 72.1459 30.001 75.1894C24.3775 72.3985 19.6437 68.0948 16.3313 62.7618C13.0189 57.4289 11.2593 51.2779 11.25 45ZM59.9991 75.1894C61.1993 72.866 61.8415 70.2949 61.8747 67.6801C61.9079 65.0653 61.3312 62.4787 60.1905 60.1257C59.0497 57.7726 57.3762 55.7178 55.3028 54.1243C53.2293 52.5307 50.813 51.4424 48.2456 50.9456C50.4478 49.0895 52.2741 46.8288 53.6259 44.2856C55.0702 46.266 56.9653 47.8739 59.1543 48.9763C61.3434 50.0788 63.7636 50.644 66.2146 50.6254C68.6655 50.6067 71.0768 50.0046 73.2488 48.8688C75.4208 47.7331 77.2912 46.0965 78.705 44.0944C78.7134 44.3981 78.75 44.6962 78.75 45C78.7407 51.2779 76.9811 57.4289 73.6687 62.7618C70.3564 68.0948 65.6225 72.3985 59.9991 75.1894Z" fill="black"/>
</svg>
