<svg width="80" height="80" viewBox="0 0 80 80" fill="none" xmlns="http://www.w3.org/2000/svg">
<path d="M40 0.625C32.2124 0.625 24.5996 2.9343 18.1244 7.26088C11.6493 11.5875 6.60246 17.737 3.62226 24.9318C0.642061 32.1267 -0.137696 40.0437 1.3816 47.6817C2.90089 55.3197 6.65099 62.3356 12.1577 67.8423C17.6644 73.349 24.6803 77.0991 32.3183 78.6184C39.9563 80.1377 47.8733 79.3579 55.0682 76.3777C62.263 73.3975 68.4126 68.3508 72.7391 61.8756C77.0657 55.4004 79.375 47.7876 79.375 40C79.375 29.5571 75.2266 19.5419 67.8423 12.1577C60.4581 4.77342 50.4429 0.625 40 0.625ZM61.0938 20.3125C63.0407 20.3125 64.9439 20.8898 66.5627 21.9715C68.1814 23.0531 69.4431 24.5905 70.1882 26.3892C70.9333 28.1879 71.1282 30.1672 70.7484 32.0767C70.3685 33.9862 69.431 35.7402 68.0543 37.1168C66.6777 38.4935 64.9237 39.431 63.0142 39.8109C61.1047 40.1907 59.1254 39.9957 57.3267 39.2507C55.528 38.5056 53.9906 37.2439 52.909 35.6251C51.8273 34.0063 51.25 32.1032 51.25 30.1562C51.253 27.5464 52.291 25.0444 54.1365 23.199C55.9819 21.3535 58.484 20.3155 61.0938 20.3125ZM62.3172 14.7494C61.9104 14.7127 61.5022 14.692 61.0938 14.6875C58.8919 14.6872 56.7155 15.1584 54.7109 16.0695C52.7064 16.9806 50.9202 18.3103 49.4725 19.9694C48.0815 16.7021 45.9378 13.8099 43.2163 11.5288C40.4948 9.24771 37.2726 7.64226 33.8125 6.84344C38.8513 5.87971 44.0446 6.09171 48.9881 7.46296C53.9316 8.8342 58.4948 11.3277 62.3172 14.7494ZM40 73.75C37.775 73.75 35.5999 73.0902 33.7499 71.854C31.8998 70.6179 30.4579 68.8608 29.6064 66.8052C28.7549 64.7495 28.5321 62.4875 28.9662 60.3052C29.4003 58.1229 30.4717 56.1184 32.0451 54.545C33.6184 52.9717 35.623 51.9002 37.8052 51.4662C39.9875 51.0321 42.2495 51.2549 44.3052 52.1063C46.3609 52.9578 48.1179 54.3998 49.354 56.2498C50.5902 58.0999 51.25 60.275 51.25 62.5C51.2463 65.4825 50.0598 68.3419 47.9509 70.4508C45.8419 72.5598 42.9826 73.7463 40 73.75ZM28.75 45.625C25.4125 45.625 22.1498 44.6353 19.3748 42.781C16.5997 40.9268 14.4368 38.2913 13.1595 35.2078C11.8823 32.1243 11.5481 28.7313 12.1993 25.4578C12.8504 22.1844 14.4576 19.1776 16.8176 16.8176C19.1776 14.4576 22.1844 12.8504 25.4579 12.1992C28.7313 11.5481 32.1243 11.8823 35.2078 13.1595C38.2913 14.4368 40.9268 16.5997 42.7811 19.3748C44.6353 22.1498 45.625 25.4124 45.625 28.75C45.6198 33.2239 43.8402 37.5131 40.6767 40.6767C37.5131 43.8402 33.2239 45.6198 28.75 45.625ZM6.25002 40C6.25677 37.9245 6.45542 35.8542 6.84345 33.8153C7.94212 38.5573 10.5504 42.8144 14.2762 45.9468C18.002 49.0792 22.6439 50.9175 27.5041 51.1853C25.1934 53.7168 23.7145 56.8959 23.2669 60.2941C22.8193 63.6922 23.4245 67.1459 25.001 70.1894C19.3775 67.3985 14.6437 63.0948 11.3313 57.7618C8.01894 52.4289 6.25928 46.2779 6.25002 40ZM54.9991 70.1894C56.1993 67.866 56.8415 65.2949 56.8747 62.6801C56.9079 60.0653 56.3312 57.4787 55.1905 55.1257C54.0497 52.7726 52.3762 50.7178 50.3028 49.1243C48.2293 47.5307 45.813 46.4424 43.2456 45.9456C45.4478 44.0895 47.2741 41.8288 48.6259 39.2856C50.0702 41.266 51.9653 42.8739 54.1543 43.9763C56.3434 45.0788 58.7636 45.644 61.2146 45.6254C63.6655 45.6067 66.0768 45.0046 68.2488 43.8688C70.4208 42.7331 72.2912 41.0965 73.705 39.0944C73.7134 39.3981 73.75 39.6962 73.75 40C73.7407 46.2779 71.9811 52.4289 68.6687 57.7618C65.3564 63.0948 60.6225 67.3985 54.9991 70.1894Z" fill="black"/>
</svg>
