<svg width="29" height="29" viewBox="0 0 29 29" fill="none" xmlns="http://www.w3.org/2000/svg">
<path d="M16.2059 5.81366V22.8162C16.2065 22.9286 16.1849 23.04 16.1424 23.1441C16.0998 23.2481 16.0371 23.3428 15.9578 23.4225C15.8785 23.5022 15.7843 23.5655 15.6805 23.6087C15.5767 23.6518 15.4653 23.674 15.3529 23.674C15.2405 23.674 15.1292 23.6518 15.0254 23.6087C14.9216 23.5655 14.8273 23.5022 14.7481 23.4225C14.6688 23.3428 14.6061 23.2481 14.5635 23.1441C14.5209 23.04 14.4993 22.9286 14.5 22.8162V5.81366L8.28034 12.4222C8.20362 12.506 8.11032 12.5729 8.00636 12.6187C7.9024 12.6644 7.79005 12.6881 7.67646 12.6881C7.56287 12.6881 7.45053 12.6644 7.34657 12.6187C7.2426 12.5729 7.1493 12.506 7.07259 12.4222C6.91207 12.2475 6.823 12.0189 6.823 11.7817C6.823 11.5444 6.91207 11.3158 7.07259 11.1411L14.749 2.98361C14.8257 2.89984 14.9191 2.83294 15.023 2.78717C15.127 2.74141 15.2393 2.71777 15.3529 2.71777C15.4665 2.71777 15.5789 2.74141 15.6828 2.78717C15.7868 2.83294 15.8801 2.89984 15.9568 2.98361L23.6333 11.1411C23.7933 11.3157 23.8821 11.544 23.8821 11.7808C23.8821 12.0177 23.7933 12.2459 23.6333 12.4205C23.5566 12.5043 23.4633 12.5712 23.3593 12.617C23.2553 12.6627 23.143 12.6864 23.0294 12.6864C22.9158 12.6864 22.8035 12.6627 22.6995 12.617C22.5955 12.5712 22.5022 12.5043 22.4255 12.4205L16.2059 5.81539V5.81366Z" fill="#020D3C"/>
</svg>
