<svg width="46" height="40" viewBox="0 0 46 40" fill="none" xmlns="http://www.w3.org/2000/svg">
<g clip-path="url(#clip0_559_1167)">
<path d="M41.4305 37.1429H4.28767C1.91624 37.1429 0.00195312 35.2286 0.00195312 32.8572V7.14286C0.00195312 4.77143 1.91624 2.85715 4.28767 2.85715H41.4305C43.802 2.85715 45.7162 4.77143 45.7162 7.14286V32.8572C45.7162 35.2286 43.802 37.1429 41.4305 37.1429ZM4.28767 5.71429C3.48767 5.71429 2.8591 6.34286 2.8591 7.14286V32.8572C2.8591 33.6572 3.48767 34.2857 4.28767 34.2857H41.4305C42.2305 34.2857 42.8591 33.6572 42.8591 32.8572V7.14286C42.8591 6.34286 42.2305 5.71429 41.4305 5.71429H4.28767Z" fill="white"/>
<path d="M22.8575 25.6C20.8575 25.6 19.0289 24.8 17.6575 23.3429L2.65748 7.4C2.11462 6.82857 2.1432 5.91428 2.71462 5.37143C3.28605 4.82857 4.20034 4.85714 4.7432 5.42857L19.7432 21.3714C21.3718 23.1143 24.3432 23.1143 25.9718 21.3714L40.9718 5.45714C41.5146 4.88571 42.4289 4.85714 43.0003 5.4C43.5718 5.94285 43.6003 6.85714 43.0575 7.42857L28.0575 23.3714C26.6861 24.8286 24.8575 25.6286 22.8575 25.6286V25.6Z" fill="white"/>
</g>
<defs>
<clipPath id="clip0_559_1167">
<rect width="45.7167" height="40" fill="white"/>
</clipPath>
</defs>
</svg>
