<svg width="120" height="120" viewBox="0 0 120 120" fill="none" xmlns="http://www.w3.org/2000/svg">
<path d="M119.381 34.6255L102.99 3.28465C102.034 1.45652 99.5607 -0.0378516 97.5 -0.0378516H59.7731C59.732 -0.0396094 59.6908 -0.0507422 59.6496 -0.0527344C59.6159 -0.0527344 59.584 -0.0394922 59.5501 -0.0377344H22.5001C20.4376 -0.0377344 17.9589 1.45289 16.9895 3.27351L0.641371 34.0104C-0.329996 35.831 -0.134879 38.6905 1.06688 40.3686L57.3188 118.785C57.9226 119.627 58.725 120.052 59.5256 120.052C60.3208 120.052 61.1175 119.638 61.725 118.811L118.901 40.9686C120.118 39.3054 120.338 36.4518 119.381 34.6255ZM110.434 33.7064H90.3412L98.3868 10.6664L110.434 33.7064ZM67.423 7.46203H91.5599L84.073 28.8989L67.423 7.46203ZM78.3092 33.7064H43.4286L59.9136 10.0233L78.3092 33.7064ZM36.7836 30.127L29.2629 7.46203H52.5617L36.7836 30.127ZM79.7754 41.2064L59.6154 98.9264L40.4604 41.2064H79.7754ZM51.2023 97.3926L10.8973 41.2064H32.5573L51.2023 97.3926ZM87.7198 41.2064H109.419L68.0548 97.522L87.7198 41.2064ZM22.0873 9.65765L30.0673 33.7064H9.29602L22.0873 9.65765Z" fill="#330B41"/>
</svg>
