<svg width="120" height="120" viewBox="0 0 120 120" fill="none" xmlns="http://www.w3.org/2000/svg">
<path d="M119.381 34.6256L102.99 3.28477C102.034 1.45665 99.5605 -0.0377295 97.4998 -0.0377295H59.773C59.7318 -0.0394873 59.6906 -0.0506201 59.6494 -0.0526123C59.6157 -0.0526123 59.5838 -0.0393701 59.5499 -0.0376123H22.4999C20.4374 -0.0376123 17.9587 1.45301 16.9893 3.27364L0.641188 34.0105C-0.330179 35.8311 -0.135062 38.6906 1.0667 40.3688L57.3186 118.785C57.9224 119.627 58.7248 120.052 59.5255 120.052C60.3206 120.052 61.1173 119.638 61.7248 118.811L118.901 40.9688C120.118 39.3055 120.337 36.4519 119.381 34.6256ZM110.433 33.7065H90.341L98.3866 10.6665L110.433 33.7065ZM67.4228 7.46215H91.5597L84.0728 28.899L67.4228 7.46215ZM78.309 33.7065H43.4285L59.9135 10.0234L78.309 33.7065ZM36.7835 30.1271L29.2627 7.46215H52.5615L36.7835 30.1271ZM79.7752 41.2065L59.6152 98.9265L40.4602 41.2065H79.7752ZM51.2021 97.3928L10.8971 41.2065H32.5571L51.2021 97.3928ZM87.7196 41.2065H109.419L68.0546 97.5221L87.7196 41.2065ZM22.0871 9.65778L30.0671 33.7065H9.29584L22.0871 9.65778Z" fill="#330B41"/>
</svg>
