<svg width="45" height="37" viewBox="0 0 45 37" fill="none" xmlns="http://www.w3.org/2000/svg">
<path d="M38.8258 23.5693C38.6098 22.0685 37.451 20.8985 35.9593 20.5498C30.161 19.1908 28.7075 15.8518 28.4623 12.1483C27.434 11.957 25.6048 11.75 22.4998 11.75C19.3948 11.75 17.5655 11.957 16.5373 12.1483C16.292 15.8518 14.8385 19.1908 9.04029 20.5498C7.54854 20.9008 6.38979 22.0685 6.17379 23.5693L5.05554 31.3137C4.66179 34.0407 6.66429 36.5 9.44979 36.5H35.5498C38.333 36.5 40.3378 34.0407 39.944 31.3137L38.8258 23.5693ZM22.4998 30.857C19.361 30.857 16.8163 28.337 16.8163 25.232C16.8163 22.127 19.361 19.607 22.4998 19.607C25.6385 19.607 28.1833 22.127 28.1833 25.232C28.1833 28.337 25.6363 30.857 22.4998 30.857ZM44.8873 9.5C44.8333 6.125 36.2428 0.50225 22.4998 0.5C8.75454 0.50225 0.16404 6.125 0.11229 9.5C0.0605398 12.875 0.15954 17.267 5.81604 16.5357C12.4333 15.6785 12.026 13.3678 12.026 10.0647C12.026 7.76075 17.408 7.205 22.4998 7.205C27.5915 7.205 32.9713 7.76075 32.9735 10.0647C32.9735 13.3678 32.5663 15.6785 39.1835 16.5357C44.8378 17.267 44.939 12.875 44.8873 9.5Z" fill="white"/>
</svg>
