<svg width="170" height="170" viewBox="0 0 170 170" fill="none" xmlns="http://www.w3.org/2000/svg">
<g clip-path="url(#clip0_324_2)">
<path fill-rule="evenodd" clip-rule="evenodd" d="M74.1981 120.332C75.3778 120.501 76.4422 121.131 77.1577 122.084C77.8732 123.037 78.1814 124.235 78.0147 125.415C77.6181 128.149 77.9859 130.939 79.0774 133.477C80.1689 136.014 81.9415 138.2 84.1988 139.792C86.5018 138.267 88.3375 136.134 89.5027 133.629C90.6679 131.125 91.1172 128.346 90.8007 125.602C90.7235 125.01 90.7652 124.408 90.9232 123.832C91.0811 123.255 91.3523 122.716 91.7209 122.246C92.0894 121.776 92.5479 121.383 93.0697 121.092C93.5914 120.801 94.1659 120.616 94.7597 120.55C95.3535 120.483 95.9547 120.535 96.5281 120.703C97.1015 120.871 97.6358 121.151 98.0996 121.528C98.5635 121.905 98.9477 122.37 99.2298 122.897C99.512 123.423 99.6863 124.001 99.7428 124.596C100.316 129.599 99.2981 134.656 96.8347 139.048C94.3713 143.44 90.5872 146.945 86.0193 149.065C85.4051 149.35 84.7344 149.493 84.0571 149.483C83.3799 149.473 82.7136 149.311 82.108 149.007C77.6035 146.756 73.9229 143.142 71.5889 138.679C69.2549 134.217 68.3861 129.132 69.1058 124.148C69.274 122.967 69.9045 121.901 70.8587 121.184C71.8129 120.468 73.0126 120.159 74.1939 120.327" fill="#005F63"/>
<path fill-rule="evenodd" clip-rule="evenodd" d="M75.076 111.366C81.3986 112.235 87.8036 112.328 94.1489 111.645L110.878 128.87C112.608 130.652 115.459 130.694 117.241 128.963C120.589 125.714 123.132 121.728 124.669 117.324C126.207 112.919 126.696 108.216 126.097 103.59C125.499 98.9628 123.83 94.5393 121.222 90.6707C118.615 86.802 115.141 83.5948 111.077 81.3039C113.365 68.8167 112.567 55.9595 108.753 43.8511C104.938 31.7428 98.2216 20.7501 89.1886 11.8299C88.3622 11.012 87.2514 10.5458 86.0889 10.5288C84.9264 10.5118 83.8025 10.9454 82.9526 11.7387C73.6612 20.391 66.6254 31.1831 62.4573 43.1756C58.2893 55.168 57.1155 67.9975 59.038 80.5472C54.9097 82.7189 51.3448 85.8233 48.6263 89.6139C45.9078 93.4045 44.1106 97.7768 43.3776 102.383C42.6447 106.99 42.996 111.704 44.4038 116.151C45.8115 120.599 48.2369 124.656 51.4873 128.002C53.2221 129.78 56.0729 129.821 57.8548 128.091L75.076 111.366ZM93.7325 68.1555C96.0156 65.9382 97.3244 62.9048 97.3709 59.7225C97.4174 56.5402 96.1979 53.4698 93.9806 51.1867C91.7633 48.9036 88.7299 47.5949 85.5476 47.5483C82.3654 47.5018 79.295 48.7213 77.0119 50.9386C74.7288 53.1559 73.42 56.1894 73.3735 59.3716C73.3269 62.5539 74.5465 65.6243 76.7637 67.9074C78.981 70.1905 82.0145 71.4992 85.1967 71.5458C88.379 71.5923 91.4494 70.3728 93.7325 68.1555Z" fill="#005F63"/>
</g>
<defs>
<clipPath id="clip0_324_2">
<rect width="120" height="120" fill="white" transform="translate(0.15625 83.7595) rotate(-44.1623)"/>
</clipPath>
</defs>
</svg>
