<svg width="40" height="40" viewBox="0 0 40 40" fill="none" xmlns="http://www.w3.org/2000/svg">
<path d="M23.3334 33.3333L22.155 34.5117L23.3334 35.69L24.5117 34.5117L23.3334 33.3333ZM10 5C9.55801 5 9.13409 5.17559 8.82153 5.48816C8.50897 5.80072 8.33337 6.22464 8.33337 6.66667C8.33337 7.10869 8.50897 7.53262 8.82153 7.84518C9.13409 8.15774 9.55801 8.33333 10 8.33333V5ZM13.8217 26.1783L22.155 34.5117L24.5117 32.155L16.1784 23.8217L13.8217 26.1783ZM24.5117 34.5117L32.845 26.1783L30.4884 23.8217L22.155 32.155L24.5117 34.5117ZM25 33.3333V16.6667H21.6667V33.3333H25ZM13.3334 5H10V8.33333H13.3334V5ZM25 16.6667C25 13.5725 23.7709 10.605 21.5829 8.41709C19.395 6.22916 16.4276 5 13.3334 5V8.33333C15.5435 8.33333 17.6631 9.21131 19.2259 10.7741C20.7887 12.3369 21.6667 14.4565 21.6667 16.6667H25Z" fill="white"/>
</svg>
