<svg width="330" height="330" viewBox="0 0 330 330" fill="none" xmlns="http://www.w3.org/2000/svg">
<path d="M151.5 57.6603C160.782 52.3013 172.218 52.3013 181.5 57.6603L253.258 99.0897C262.54 104.449 268.258 114.353 268.258 125.071V207.929C268.258 218.647 262.54 228.551 253.258 233.91L181.5 275.34C172.218 280.699 160.782 280.699 151.5 275.34L79.742 233.91C70.46 228.551 64.742 218.647 64.742 207.929V125.071C64.742 114.353 70.46 104.449 79.742 99.0897L151.5 57.6603Z" fill="#02596C"/>
<path d="M86.5861 87.54C90.6868 77.6376 99.759 70.675 110.385 69.2752L192.534 58.453C203.161 57.0531 213.726 61.4286 220.252 69.9312L270.699 135.663C277.224 144.166 278.718 155.504 274.617 165.406L242.915 241.961C238.814 251.863 229.742 258.826 219.115 260.226L136.966 271.048C126.34 272.448 115.774 268.072 109.249 259.57L58.802 193.837C52.2766 185.335 50.783 173.997 54.8838 164.094L86.5861 87.54Z" fill="#8A5082" fill-opacity="0.69"/>
<path d="M99.9789 156.12H101.099V163H82.0989V161.88L84.2989 161.6C84.7256 161.547 84.9789 161.44 85.0589 161.28C85.1389 161.093 85.1789 160.547 85.1789 159.64V139.16C85.1789 138.253 85.1389 137.72 85.0589 137.56C84.9789 137.373 84.7256 137.253 84.2989 137.2L82.0989 136.92V135.8H93.0589V136.92L90.8589 137.2C90.4322 137.253 90.1789 137.373 90.0989 137.56C90.0189 137.72 89.9789 138.253 89.9789 139.16V161.6H96.5389C97.1789 161.6 97.6322 161.587 97.8989 161.56C98.1656 161.507 98.3389 161.413 98.4189 161.28C98.5256 161.12 98.6189 160.88 98.6989 160.56L99.9789 156.12ZM120.628 158.24C120.148 160.107 119.255 161.44 117.948 162.24C116.641 163.013 115.121 163.4 113.388 163.4C110.188 163.4 107.788 162.48 106.188 160.64C104.588 158.773 103.788 156.307 103.788 153.24V152.44C103.788 149.373 104.535 146.92 106.028 145.08C107.548 143.24 109.735 142.32 112.588 142.32C114.188 142.32 115.601 142.64 116.828 143.28C118.081 143.893 119.055 144.787 119.748 145.96C120.468 147.133 120.828 148.56 120.828 150.24C120.828 150.64 120.801 151.067 120.748 151.52C120.721 151.973 120.655 152.427 120.548 152.88H108.708V154.04C108.708 156.867 109.108 158.907 109.908 160.16C110.708 161.387 112.001 162 113.788 162C114.935 162 115.908 161.667 116.708 161C117.508 160.307 117.961 159.147 118.068 157.52L120.628 158.24ZM112.588 143.72C111.281 143.72 110.308 144.32 109.668 145.52C109.028 146.72 108.708 148.707 108.708 151.48H115.948C116.055 150.947 116.121 150.453 116.148 150C116.201 149.52 116.228 149.08 116.228 148.68C116.228 146.973 115.895 145.72 115.228 144.92C114.561 144.12 113.681 143.72 112.588 143.72ZM138 158.84C137.653 160.467 136.987 161.64 136 162.36C135.04 163.053 133.867 163.4 132.48 163.4C131.067 163.4 129.907 163.093 129 162.48C128.093 161.84 127.427 161 127 159.96C126.573 158.92 126.36 157.813 126.36 156.64V146.08C126.36 145.173 126.32 144.64 126.24 144.48C126.16 144.293 125.907 144.173 125.48 144.12L123.28 143.84V142.72H126.36V138.08L130.96 137.16V142.72H137.36V144.12H130.96V157.44C130.96 159.147 131.173 160.333 131.6 161C132.027 161.64 132.573 161.96 133.24 161.96C133.933 161.96 134.467 161.693 134.84 161.16C135.24 160.627 135.493 159.653 135.6 158.24L138 158.84ZM146.341 138.56C146.341 139.573 145.994 140.8 145.301 142.24C144.634 143.653 143.621 145.147 142.261 146.72L141.341 145.92C142.248 144.827 142.874 143.853 143.221 143C143.594 142.147 143.794 141.36 143.821 140.64H143.701C142.928 140.64 142.301 140.4 141.821 139.92C141.341 139.44 141.101 138.8 141.101 138C141.101 137.227 141.341 136.6 141.821 136.12C142.301 135.64 142.928 135.4 143.701 135.4C144.474 135.4 145.101 135.68 145.581 136.24C146.088 136.773 146.341 137.547 146.341 138.56ZM157.645 155.44L154.885 154.8C153.099 154.373 151.765 153.613 150.885 152.52C150.032 151.4 149.605 150.08 149.605 148.56C149.605 147.44 149.845 146.413 150.325 145.48C150.832 144.52 151.619 143.76 152.685 143.2C153.752 142.613 155.139 142.32 156.845 142.32C158.685 142.32 160.179 142.613 161.325 143.2C162.472 143.787 163.285 144.56 163.765 145.52C164.245 146.48 164.392 147.507 164.205 148.6L159.805 149.4C160.179 147.587 160.072 146.187 159.485 145.2C158.925 144.213 157.979 143.72 156.645 143.72C155.712 143.72 154.939 144 154.325 144.56C153.712 145.093 153.405 145.867 153.405 146.88C153.405 147.813 153.672 148.64 154.205 149.36C154.739 150.053 155.525 150.52 156.565 150.76L159.325 151.4C161.299 151.853 162.725 152.573 163.605 153.56C164.485 154.52 164.925 155.72 164.925 157.16C164.925 158.947 164.259 160.44 162.925 161.64C161.619 162.813 159.659 163.4 157.045 163.4C156.139 163.4 155.139 163.267 154.045 163C152.979 162.707 151.992 162.187 151.085 161.44C150.205 160.693 149.565 159.627 149.165 158.24L151.765 157.2C151.952 158.96 152.552 160.2 153.565 160.92C154.605 161.64 155.765 162 157.045 162C158.245 162 159.219 161.733 159.965 161.2C160.739 160.64 161.125 159.84 161.125 158.8C161.125 158.08 160.872 157.427 160.365 156.84C159.885 156.227 158.979 155.76 157.645 155.44ZM190.93 158.84C190.583 160.467 189.916 161.64 188.93 162.36C187.97 163.053 186.796 163.4 185.41 163.4C183.996 163.4 182.836 163.093 181.93 162.48C181.023 161.84 180.356 161 179.93 159.96C179.503 158.92 179.29 157.813 179.29 156.64V146.08C179.29 145.173 179.25 144.64 179.17 144.48C179.09 144.293 178.836 144.173 178.41 144.12L176.21 143.84V142.72H179.29V138.08L183.89 137.16V142.72H190.29V144.12H183.89V157.44C183.89 159.147 184.103 160.333 184.53 161C184.956 161.64 185.503 161.96 186.17 161.96C186.863 161.96 187.396 161.693 187.77 161.16C188.17 160.627 188.423 159.653 188.53 158.24L190.93 158.84ZM212.871 162C212.444 162.4 211.924 162.733 211.311 163C210.724 163.267 210.004 163.4 209.151 163.4C208.057 163.4 207.137 163.16 206.391 162.68C205.671 162.2 205.191 161.52 204.951 160.64C204.071 161.6 203.097 162.307 202.031 162.76C200.991 163.187 199.924 163.4 198.831 163.4C196.991 163.4 195.617 162.893 194.711 161.88C193.804 160.84 193.351 159.547 193.351 158C193.351 156.427 193.924 155.16 195.071 154.2C196.217 153.213 198.244 152.72 201.151 152.72H204.791V149.48C204.791 147.267 204.497 145.76 203.911 144.96C203.351 144.133 202.564 143.72 201.551 143.72C200.884 143.72 200.271 143.893 199.711 144.24C199.151 144.56 198.751 145.173 198.511 146.08C198.297 146.96 198.337 148.24 198.631 149.92L194.231 149.28C194.017 148.053 194.151 146.92 194.631 145.88C195.137 144.813 195.977 143.96 197.151 143.32C198.324 142.653 199.817 142.32 201.631 142.32C203.684 142.32 205.271 142.653 206.391 143.32C207.511 143.987 208.284 144.867 208.711 145.96C209.164 147.053 209.391 148.227 209.391 149.48V158.72C209.391 160.08 209.511 160.933 209.751 161.28C209.991 161.627 210.257 161.8 210.551 161.8C211.031 161.8 211.564 161.52 212.151 160.96L212.871 162ZM200.591 161.28C201.284 161.28 201.964 161.107 202.631 160.76C203.324 160.387 204.044 159.707 204.791 158.72V154.12H201.791C200.484 154.12 199.537 154.427 198.951 155.04C198.364 155.653 198.071 156.613 198.071 157.92C198.071 158.987 198.284 159.813 198.711 160.4C199.137 160.987 199.764 161.28 200.591 161.28ZM213.714 134.52V133.4H221.394V159.64C221.394 160.547 221.434 161.093 221.514 161.28C221.594 161.44 221.848 161.547 222.274 161.6L224.474 161.88V163H213.714V161.88L215.914 161.6C216.341 161.547 216.594 161.44 216.674 161.28C216.754 161.093 216.794 160.547 216.794 159.64V136.76C216.794 135.853 216.754 135.32 216.674 135.16C216.594 134.973 216.341 134.853 215.914 134.8L213.714 134.52ZM225.745 134.52V133.4H233.425V152.8L240.465 146.08C241.399 145.2 241.892 144.667 241.945 144.48C242.025 144.293 241.839 144.173 241.385 144.12L239.185 143.84V142.72H247.385V143.84L245.185 144.12C244.945 144.147 244.745 144.2 244.585 144.28C244.425 144.36 244.199 144.533 243.905 144.8C243.612 145.04 243.145 145.467 242.505 146.08L238.665 149.76L244.345 159.64C244.719 160.253 244.999 160.693 245.185 160.96C245.372 161.2 245.545 161.36 245.705 161.44C245.892 161.493 246.119 161.547 246.385 161.6L248.585 161.88V163H240.945L235.385 152.88L233.425 154.76V159.64C233.425 160.547 233.465 161.093 233.545 161.28C233.625 161.44 233.879 161.547 234.305 161.6L236.505 161.88V163H225.745V161.88L227.945 161.6C228.372 161.547 228.625 161.44 228.705 161.28C228.785 161.093 228.825 160.547 228.825 159.64V136.76C228.825 135.853 228.785 135.32 228.705 135.16C228.625 134.973 228.372 134.853 227.945 134.8L225.745 134.52ZM124.565 194.08L120.205 211H116.565L111.765 194.92L106.925 211H103.605L99.2848 194.08C99.1248 193.467 98.9915 193.04 98.8848 192.8C98.8048 192.533 98.6982 192.36 98.5648 192.28C98.4315 192.2 98.2315 192.147 97.9648 192.12L95.7648 191.84V190.72H106.405V191.84L104.205 192.12C103.778 192.173 103.538 192.293 103.485 192.48C103.432 192.64 103.525 193.173 103.765 194.08L106.885 206.12L111.485 190.72H115.005L119.765 206.8L123.005 194.08C123.245 193.173 123.338 192.64 123.285 192.48C123.232 192.293 122.992 192.173 122.565 192.12L120.365 191.84V190.72H128.085V191.84L125.885 192.12C125.618 192.147 125.418 192.2 125.285 192.28C125.152 192.36 125.032 192.533 124.925 192.8C124.845 193.04 124.725 193.467 124.565 194.08ZM134.159 187.28C133.332 187.28 132.666 187.027 132.159 186.52C131.652 185.987 131.399 185.307 131.399 184.48C131.399 183.653 131.652 182.987 132.159 182.48C132.666 181.973 133.332 181.72 134.159 181.72C134.959 181.72 135.626 181.973 136.159 182.48C136.692 182.987 136.959 183.653 136.959 184.48C136.959 185.307 136.692 185.987 136.159 186.52C135.626 187.027 134.959 187.28 134.159 187.28ZM128.799 191.84V190.72H136.479V207.64C136.479 208.547 136.519 209.093 136.599 209.28C136.679 209.44 136.932 209.547 137.359 209.6L139.559 209.88V211H128.799V209.88L130.999 209.6C131.426 209.547 131.679 209.44 131.759 209.28C131.839 209.093 131.879 208.547 131.879 207.64V194.08C131.879 193.173 131.839 192.64 131.759 192.48C131.679 192.293 131.426 192.173 130.999 192.12L128.799 191.84ZM155.344 206.84C154.997 208.467 154.33 209.64 153.344 210.36C152.384 211.053 151.21 211.4 149.824 211.4C148.41 211.4 147.25 211.093 146.344 210.48C145.437 209.84 144.77 209 144.344 207.96C143.917 206.92 143.704 205.813 143.704 204.64V194.08C143.704 193.173 143.664 192.64 143.584 192.48C143.504 192.293 143.25 192.173 142.824 192.12L140.624 191.84V190.72H143.704V186.08L148.304 185.16V190.72H154.704V192.12H148.304V205.44C148.304 207.147 148.517 208.333 148.944 209C149.37 209.64 149.917 209.96 150.584 209.96C151.277 209.96 151.81 209.693 152.184 209.16C152.584 208.627 152.837 207.653 152.944 206.24L155.344 206.84ZM180.165 209.88V211H169.405V209.88L171.605 209.6C172.032 209.547 172.285 209.44 172.365 209.28C172.445 209.093 172.485 208.547 172.485 207.64V197.56C172.485 195.72 172.205 194.387 171.645 193.56C171.112 192.707 170.312 192.28 169.245 192.28C168.792 192.28 168.258 192.4 167.645 192.64C167.058 192.853 166.458 193.253 165.845 193.84C165.258 194.427 164.738 195.293 164.285 196.44V207.64C164.285 208.547 164.325 209.093 164.405 209.28C164.485 209.44 164.738 209.547 165.165 209.6L167.365 209.88V211H156.605V209.88L158.805 209.6C159.232 209.547 159.485 209.44 159.565 209.28C159.645 209.093 159.685 208.547 159.685 207.64V184.76C159.685 183.853 159.645 183.32 159.565 183.16C159.485 182.973 159.232 182.853 158.805 182.8L156.605 182.52V181.4H164.285V193.84C165.058 192.613 166.018 191.72 167.165 191.16C168.338 190.6 169.512 190.32 170.685 190.32C172.658 190.32 174.218 190.947 175.365 192.2C176.512 193.453 177.085 195.227 177.085 197.52V207.64C177.085 208.547 177.125 209.093 177.205 209.28C177.285 209.44 177.538 209.547 177.965 209.6L180.165 209.88ZM213.159 209.88V211H205.719V207.48C204.972 208.84 204.012 209.84 202.839 210.48C201.665 211.093 200.479 211.4 199.279 211.4C197.385 211.4 195.879 210.773 194.759 209.52C193.639 208.24 193.079 206.467 193.079 204.2V194.08C193.079 193.173 193.039 192.64 192.959 192.48C192.879 192.293 192.625 192.173 192.199 192.12L189.999 191.84V190.72H197.679V204.16C197.679 206 197.932 207.347 198.439 208.2C198.972 209.027 199.732 209.44 200.719 209.44C201.145 209.44 201.639 209.333 202.199 209.12C202.785 208.88 203.372 208.467 203.959 207.88C204.545 207.267 205.052 206.4 205.479 205.28V194.08C205.479 193.173 205.439 192.627 205.359 192.44C205.279 192.253 205.025 192.147 204.599 192.12L201.599 191.84V190.72H210.079V207.64C210.079 208.547 210.119 209.093 210.199 209.28C210.279 209.44 210.532 209.547 210.959 209.6L213.159 209.88ZM223.856 203.44L221.096 202.8C219.31 202.373 217.976 201.613 217.096 200.52C216.243 199.4 215.816 198.08 215.816 196.56C215.816 195.44 216.056 194.413 216.536 193.48C217.043 192.52 217.83 191.76 218.896 191.2C219.963 190.613 221.35 190.32 223.056 190.32C224.896 190.32 226.39 190.613 227.536 191.2C228.683 191.787 229.496 192.56 229.976 193.52C230.456 194.48 230.603 195.507 230.416 196.6L226.016 197.4C226.39 195.587 226.283 194.187 225.696 193.2C225.136 192.213 224.19 191.72 222.856 191.72C221.923 191.72 221.15 192 220.536 192.56C219.923 193.093 219.616 193.867 219.616 194.88C219.616 195.813 219.883 196.64 220.416 197.36C220.95 198.053 221.736 198.52 222.776 198.76L225.536 199.4C227.51 199.853 228.936 200.573 229.816 201.56C230.696 202.52 231.136 203.72 231.136 205.16C231.136 206.947 230.47 208.44 229.136 209.64C227.83 210.813 225.87 211.4 223.256 211.4C222.35 211.4 221.35 211.267 220.256 211C219.19 210.707 218.203 210.187 217.296 209.44C216.416 208.693 215.776 207.627 215.376 206.24L217.976 205.2C218.163 206.96 218.763 208.2 219.776 208.92C220.816 209.64 221.976 210 223.256 210C224.456 210 225.43 209.733 226.176 209.2C226.95 208.64 227.336 207.84 227.336 206.8C227.336 206.08 227.083 205.427 226.576 204.84C226.096 204.227 225.19 203.76 223.856 203.44Z" fill="white"/>
<g clip-path="url(#clip0_369_11)">
<path d="M144.188 80.25C144.188 77.2663 145.373 74.4048 147.483 72.295C149.592 70.1853 152.454 69 155.438 69C158.421 69 161.283 70.1853 163.392 72.295C165.502 74.4048 166.688 77.2663 166.688 80.25C166.688 83.2337 165.502 86.0952 163.392 88.205C161.283 90.3147 158.421 91.5 155.438 91.5C152.454 91.5 149.592 90.3147 147.483 88.205C145.373 86.0952 144.188 83.2337 144.188 80.25ZM135 114.158C135 105.283 142.189 98.0938 151.064 98.0938H159.811C168.686 98.0938 175.875 105.283 175.875 114.158C175.875 115.175 175.05 116 174.033 116H136.842C135.825 116 135 115.175 135 114.158ZM192.312 116H180.631C180.829 115.349 180.938 114.657 180.938 113.938V113.172C180.938 107.959 178.952 103.199 175.7 99.625H179.813C187.788 99.625 194.25 106.087 194.25 114.062C194.25 115.134 193.379 116 192.312 116ZM175.344 91.5C172.953 91.5 170.769 90.6376 169.074 89.2075C170.768 86.6346 171.75 83.5551 171.75 80.25C171.75 77.8397 171.226 75.5461 170.282 73.4833C171.759 72.5834 173.49 72.0625 175.344 72.0625C180.715 72.0625 185.062 76.4095 185.062 81.7812C185.062 87.153 180.715 91.5 175.344 91.5Z" fill="#60537B" stroke="white" stroke-width="2"/>
</g>
<defs>
<clipPath id="clip0_369_11">
<rect width="61.25" height="49" fill="white" transform="translate(134 68)"/>
</clipPath>
</defs>
</svg>
