<svg width="1014" height="455" viewBox="0 0 1014 455" fill="none" xmlns="http://www.w3.org/2000/svg">
<path d="M94.5504 119.88H100.43V156H0.680391V150.12L12.2304 148.65C14.4704 148.37 15.8004 147.81 16.2204 146.97C16.6404 145.99 16.8504 143.12 16.8504 138.36V30.84C16.8504 26.08 16.6404 23.28 16.2204 22.44C15.8004 21.46 14.4704 20.83 12.2304 20.55L0.680391 19.08V13.2H58.2204V19.08L46.6704 20.55C44.4304 20.83 43.1004 21.46 42.6804 22.44C42.2604 23.28 42.0504 26.08 42.0504 30.84V148.65H76.4904C79.8504 148.65 82.2304 148.58 83.6304 148.44C85.0304 148.16 85.9404 147.67 86.3604 146.97C86.9204 146.13 87.4104 144.87 87.8304 143.19L94.5504 119.88ZM202.958 131.01C200.438 140.81 195.748 147.81 188.888 152.01C182.028 156.07 174.048 158.1 164.948 158.1C148.148 158.1 135.548 153.27 127.148 143.61C118.748 133.81 114.548 120.86 114.548 104.76V100.56C114.548 84.46 118.468 71.58 126.308 61.92C134.288 52.26 145.768 47.43 160.748 47.43C169.148 47.43 176.568 49.11 183.008 52.47C189.588 55.69 194.698 60.38 198.338 66.54C202.118 72.7 204.008 80.19 204.008 89.01C204.008 91.11 203.868 93.35 203.588 95.73C203.448 98.11 203.098 100.49 202.538 102.87H140.378V108.96C140.378 123.8 142.478 134.51 146.678 141.09C150.878 147.53 157.668 150.75 167.048 150.75C173.068 150.75 178.178 149 182.378 145.5C186.578 141.86 188.958 135.77 189.518 127.23L202.958 131.01ZM160.748 54.78C153.888 54.78 148.778 57.93 145.418 64.23C142.058 70.53 140.378 80.96 140.378 95.52H178.388C178.948 92.72 179.298 90.13 179.438 87.75C179.718 85.23 179.858 82.92 179.858 80.82C179.858 71.86 178.108 65.28 174.608 61.08C171.108 56.88 166.488 54.78 160.748 54.78ZM294.16 134.16C292.34 142.7 288.84 148.86 283.66 152.64C278.62 156.28 272.46 158.1 265.18 158.1C257.76 158.1 251.67 156.49 246.91 153.27C242.15 149.91 238.65 145.5 236.41 140.04C234.17 134.58 233.05 128.77 233.05 122.61V67.17C233.05 62.41 232.84 59.61 232.42 58.77C232 57.79 230.67 57.16 228.43 56.88L216.88 55.41V49.53H233.05V25.17L257.2 20.34V49.53H290.8V56.88H257.2V126.81C257.2 135.77 258.32 142 260.56 145.5C262.8 148.86 265.67 150.54 269.17 150.54C272.81 150.54 275.61 149.14 277.57 146.34C279.67 143.54 281 138.43 281.56 131.01L294.16 134.16ZM337.952 27.69C337.952 33.01 336.132 39.45 332.492 47.01C328.992 54.43 323.672 62.27 316.532 70.53L311.702 66.33C316.462 60.59 319.752 55.48 321.572 51C323.532 46.52 324.582 42.39 324.722 38.61H324.092C320.032 38.61 316.742 37.35 314.222 34.83C311.702 32.31 310.442 28.95 310.442 24.75C310.442 20.69 311.702 17.4 314.222 14.88C316.742 12.36 320.032 11.1 324.092 11.1C328.152 11.1 331.442 12.57 333.962 15.51C336.622 18.31 337.952 22.37 337.952 27.69ZM397.3 116.31L382.81 112.95C373.43 110.71 366.43 106.72 361.81 100.98C357.33 95.1 355.09 88.17 355.09 80.19C355.09 74.31 356.35 68.92 358.87 64.02C361.53 58.98 365.66 54.99 371.26 52.05C376.86 48.97 384.14 47.43 393.1 47.43C402.76 47.43 410.6 48.97 416.62 52.05C422.64 55.13 426.91 59.19 429.43 64.23C431.95 69.27 432.72 74.66 431.74 80.4L408.64 84.6C410.6 75.08 410.04 67.73 406.96 62.55C404.02 57.37 399.05 54.78 392.05 54.78C387.15 54.78 383.09 56.25 379.87 59.19C376.65 61.99 375.04 66.05 375.04 71.37C375.04 76.27 376.44 80.61 379.24 84.39C382.04 88.03 386.17 90.48 391.63 91.74L406.12 95.1C416.48 97.48 423.97 101.26 428.59 106.44C433.21 111.48 435.52 117.78 435.52 125.34C435.52 134.72 432.02 142.56 425.02 148.86C418.16 155.02 407.87 158.1 394.15 158.1C389.39 158.1 384.14 157.4 378.4 156C372.8 154.46 367.62 151.73 362.86 147.81C358.24 143.89 354.88 138.29 352.78 131.01L366.43 125.55C367.41 134.79 370.56 141.3 375.88 145.08C381.34 148.86 387.43 150.75 394.15 150.75C400.45 150.75 405.56 149.35 409.48 146.55C413.54 143.61 415.57 139.41 415.57 133.95C415.57 130.17 414.24 126.74 411.58 123.66C409.06 120.44 404.3 117.99 397.3 116.31ZM624.331 156L589.891 41.34L557.341 156H539.071L509.881 30.84C509.181 27.62 508.621 25.38 508.201 24.12C507.781 22.72 507.151 21.81 506.311 21.39C505.611 20.97 504.491 20.69 502.951 20.55L491.401 19.08V13.2H549.571V19.08L538.021 20.55C535.781 20.83 534.591 21.39 534.451 22.23C534.311 23.07 534.731 25.94 535.711 30.84L557.551 128.7L589.681 13.2H607.111L641.341 126.6L663.601 30.84C664.721 25.94 665.141 23.07 664.861 22.23C664.581 21.39 663.391 20.83 661.291 20.55L649.741 19.08V13.2H690.481V19.08L678.931 20.55C677.391 20.69 676.271 20.97 675.571 21.39C674.871 21.81 674.241 22.72 673.681 24.12C673.261 25.38 672.701 27.62 672.001 30.84L642.811 156H624.331ZM786.172 100.56V104.76C786.172 120.86 781.972 133.81 773.572 143.61C765.312 153.27 753.482 158.1 738.082 158.1C722.682 158.1 710.782 153.27 702.382 143.61C694.122 133.81 689.992 120.86 689.992 104.76V100.56C689.992 84.46 694.122 71.58 702.382 61.92C710.782 52.26 722.682 47.43 738.082 47.43C753.482 47.43 765.312 52.26 773.572 61.92C781.972 71.58 786.172 84.46 786.172 100.56ZM760.342 96.36C760.342 81.38 758.452 70.74 754.672 64.44C750.892 58 745.362 54.78 738.082 54.78C730.942 54.78 725.412 58 721.492 64.44C717.712 70.74 715.822 81.38 715.822 96.36V108.96C715.822 123.8 717.712 134.51 721.492 141.09C725.412 147.53 730.942 150.75 738.082 150.75C745.362 150.75 750.892 147.53 754.672 141.09C758.452 134.51 760.342 123.8 760.342 108.96V96.36ZM801.822 55.41V49.53H840.882V66.75C849.422 53.87 859.572 47.43 871.332 47.43C875.672 47.43 879.872 48.83 883.932 51.63C887.992 54.29 891.352 59.33 894.012 66.75L875.322 76.83C873.362 71.09 871.052 67.24 868.392 65.28C865.872 63.18 863.142 62.13 860.202 62.13C857.122 62.13 854.112 63.11 851.172 65.07C848.232 67.03 845.222 70.67 842.142 75.99V138.36C842.142 143.12 842.352 145.99 842.772 146.97C843.192 147.81 844.522 148.37 846.762 148.65L862.512 150.12V156H801.822V150.12L813.372 148.65C815.612 148.37 816.942 147.81 817.362 146.97C817.782 145.99 817.992 143.12 817.992 138.36V67.17C817.992 62.41 817.782 59.61 817.362 58.77C816.942 57.79 815.612 57.16 813.372 56.88L801.822 55.41ZM893.253 6.48V0.599998H933.573V102.45L970.533 67.17C975.433 62.55 978.023 59.75 978.303 58.77C978.723 57.79 977.743 57.16 975.363 56.88L963.813 55.41V49.53H1006.86V55.41L995.313 56.88C994.053 57.02 993.003 57.3 992.163 57.72C991.323 58.14 990.133 59.05 988.593 60.45C987.053 61.71 984.603 63.95 981.243 67.17L961.083 86.49L990.903 138.36C992.863 141.58 994.333 143.89 995.313 145.29C996.293 146.55 997.203 147.39 998.043 147.81C999.023 148.09 1000.21 148.37 1001.61 148.65L1013.16 150.12V156H973.053L943.863 102.87L933.573 112.74V138.36C933.573 143.12 933.783 145.99 934.203 146.97C934.623 147.81 935.953 148.37 938.193 148.65L949.743 150.12V156H893.253V150.12L904.803 148.65C907.043 148.37 908.373 147.81 908.793 146.97C909.213 145.99 909.423 143.12 909.423 138.36V18.24C909.423 13.48 909.213 10.68 908.793 9.83999C908.373 8.86 907.043 8.23 904.803 7.94999L893.253 6.48ZM160.039 386.16C158.219 394.7 154.719 400.86 149.539 404.64C144.499 408.28 138.339 410.1 131.059 410.1C123.639 410.1 117.549 408.49 112.789 405.27C108.029 401.91 104.529 397.5 102.289 392.04C100.049 386.58 98.9292 380.77 98.9292 374.61V319.17C98.9292 314.41 98.7192 311.61 98.2992 310.77C97.8792 309.79 96.5492 309.16 94.3092 308.88L82.7592 307.41V301.53H98.9292V277.17L123.079 272.34V301.53H156.679V308.88H123.079V378.81C123.079 387.77 124.199 394 126.439 397.5C128.679 400.86 131.549 402.54 135.049 402.54C138.689 402.54 141.489 401.14 143.449 398.34C145.549 395.54 146.879 390.43 147.439 383.01L160.039 386.16ZM270.401 352.56V356.76C270.401 372.86 266.201 385.81 257.801 395.61C249.541 405.27 237.711 410.1 222.311 410.1C206.911 410.1 195.011 405.27 186.611 395.61C178.351 385.81 174.221 372.86 174.221 356.76V352.56C174.221 336.46 178.351 323.58 186.611 313.92C195.011 304.26 206.911 299.43 222.311 299.43C237.711 299.43 249.541 304.26 257.801 313.92C266.201 323.58 270.401 336.46 270.401 352.56ZM244.571 348.36C244.571 333.38 242.681 322.74 238.901 316.44C235.121 310 229.591 306.78 222.311 306.78C215.171 306.78 209.641 310 205.721 316.44C201.941 322.74 200.051 333.38 200.051 348.36V360.96C200.051 375.8 201.941 386.51 205.721 393.09C209.641 399.53 215.171 402.75 222.311 402.75C229.591 402.75 235.121 399.53 238.901 393.09C242.681 386.51 244.571 375.8 244.571 360.96V348.36ZM388.531 418.92C388.531 430.4 384.191 439.22 375.511 445.38C366.971 451.68 355.211 454.83 340.231 454.83C323.711 454.83 311.391 452.1 303.271 446.64C295.151 441.32 290.741 434.67 290.041 426.69L312.511 423.12C311.951 430.54 313.701 436.42 317.761 440.76C321.961 445.24 329.451 447.48 340.231 447.48C350.311 447.48 358.431 445.59 364.591 441.81C370.891 438.03 374.041 432.57 374.041 425.43C374.041 420.39 372.151 416.54 368.371 413.88C364.731 411.36 358.641 410.1 350.101 410.1H326.161C318.741 410.1 312.861 409.05 308.521 406.95C304.321 404.85 301.381 402.26 299.701 399.18C298.021 395.96 297.181 392.67 297.181 389.31C297.181 385.25 298.301 381.26 300.541 377.34C302.781 373.28 306.631 369.29 312.091 365.37C306.071 362.71 301.171 358.79 297.391 353.61C293.611 348.43 291.721 341.99 291.721 334.29C291.721 326.45 293.541 320.01 297.181 314.97C300.821 309.79 305.721 305.94 311.881 303.42C318.041 300.76 324.901 299.43 332.461 299.43H336.031C344.151 299.43 351.151 300.76 357.031 303.42L387.271 288.51L389.791 309.09H365.851C369.211 312.03 371.801 315.6 373.621 319.8C375.581 323.86 376.561 328.69 376.561 334.29C376.561 341.85 374.741 348.22 371.101 353.4C367.461 358.58 362.561 362.5 356.401 365.16C350.381 367.82 343.591 369.15 336.031 369.15H332.461C328.261 369.15 324.131 368.73 320.071 367.89C316.571 370.27 314.121 372.58 312.721 374.82C311.461 376.92 310.831 378.95 310.831 380.91C310.831 383.15 311.811 384.83 313.771 385.95C315.871 387.07 319.231 387.63 323.851 387.63H351.151C363.191 387.63 372.431 390.36 378.871 395.82C385.311 401.14 388.531 408.84 388.531 418.92ZM336.031 361.8C340.511 361.8 344.361 359.84 347.581 355.92C350.801 352 352.411 344.79 352.411 334.29C352.411 323.79 350.801 316.58 347.581 312.66C344.361 308.74 340.511 306.78 336.031 306.78H332.461C327.981 306.78 324.061 308.74 320.701 312.66C317.481 316.58 315.871 323.79 315.871 334.29C315.871 344.79 317.481 352 320.701 355.92C324.061 359.84 327.981 361.8 332.461 361.8H336.031ZM492.528 383.01C490.008 392.81 485.318 399.81 478.458 404.01C471.598 408.07 463.618 410.1 454.518 410.1C437.718 410.1 425.118 405.27 416.718 395.61C408.318 385.81 404.118 372.86 404.118 356.76V352.56C404.118 336.46 408.038 323.58 415.878 313.92C423.858 304.26 435.338 299.43 450.318 299.43C458.718 299.43 466.138 301.11 472.578 304.47C479.158 307.69 484.268 312.38 487.908 318.54C491.688 324.7 493.578 332.19 493.578 341.01C493.578 343.11 493.438 345.35 493.158 347.73C493.018 350.11 492.668 352.49 492.108 354.87H429.948V360.96C429.948 375.8 432.048 386.51 436.248 393.09C440.448 399.53 447.238 402.75 456.618 402.75C462.638 402.75 467.748 401 471.948 397.5C476.148 393.86 478.528 387.77 479.088 379.23L492.528 383.01ZM450.318 306.78C443.458 306.78 438.348 309.93 434.988 316.23C431.628 322.53 429.948 332.96 429.948 347.52H467.958C468.518 344.72 468.868 342.13 469.008 339.75C469.288 337.23 469.428 334.92 469.428 332.82C469.428 323.86 467.678 317.28 464.178 313.08C460.678 308.88 456.058 306.78 450.318 306.78ZM583.731 386.16C581.911 394.7 578.411 400.86 573.231 404.64C568.191 408.28 562.031 410.1 554.751 410.1C547.331 410.1 541.241 408.49 536.481 405.27C531.721 401.91 528.221 397.5 525.981 392.04C523.741 386.58 522.621 380.77 522.621 374.61V319.17C522.621 314.41 522.411 311.61 521.991 310.77C521.571 309.79 520.241 309.16 518.001 308.88L506.451 307.41V301.53H522.621V277.17L546.771 272.34V301.53H580.371V308.88H546.771V378.81C546.771 387.77 547.891 394 550.131 397.5C552.371 400.86 555.241 402.54 558.741 402.54C562.381 402.54 565.181 401.14 567.141 398.34C569.241 395.54 570.571 390.43 571.131 383.01L583.731 386.16ZM714.042 402.12V408H657.552V402.12L669.102 400.65C671.342 400.37 672.672 399.81 673.092 398.97C673.512 397.99 673.722 395.12 673.722 390.36V337.44C673.722 327.78 672.252 320.78 669.312 316.44C666.512 311.96 662.312 309.72 656.712 309.72C654.332 309.72 651.532 310.35 648.312 311.61C645.232 312.73 642.082 314.83 638.862 317.91C635.782 320.99 633.052 325.54 630.672 331.56V390.36C630.672 395.12 630.882 397.99 631.302 398.97C631.722 399.81 633.052 400.37 635.292 400.65L646.842 402.12V408H590.352V402.12L601.902 400.65C604.142 400.37 605.472 399.81 605.892 398.97C606.312 397.99 606.522 395.12 606.522 390.36V270.24C606.522 265.48 606.312 262.68 605.892 261.84C605.472 260.86 604.142 260.23 601.902 259.95L590.352 258.48V252.6H630.672V317.91C634.732 311.47 639.772 306.78 645.792 303.84C651.952 300.9 658.112 299.43 664.272 299.43C674.632 299.43 682.822 302.72 688.842 309.3C694.862 315.88 697.872 325.19 697.872 337.23V390.36C697.872 395.12 698.082 397.99 698.502 398.97C698.922 399.81 700.252 400.37 702.492 400.65L714.042 402.12ZM815.936 383.01C813.416 392.81 808.726 399.81 801.866 404.01C795.006 408.07 787.026 410.1 777.926 410.1C761.126 410.1 748.526 405.27 740.126 395.61C731.726 385.81 727.526 372.86 727.526 356.76V352.56C727.526 336.46 731.446 323.58 739.286 313.92C747.266 304.26 758.746 299.43 773.726 299.43C782.126 299.43 789.546 301.11 795.986 304.47C802.566 307.69 807.676 312.38 811.316 318.54C815.096 324.7 816.986 332.19 816.986 341.01C816.986 343.11 816.846 345.35 816.566 347.73C816.426 350.11 816.076 352.49 815.516 354.87H753.356V360.96C753.356 375.8 755.456 386.51 759.656 393.09C763.856 399.53 770.646 402.75 780.026 402.75C786.046 402.75 791.156 401 795.356 397.5C799.556 393.86 801.936 387.77 802.496 379.23L815.936 383.01ZM773.726 306.78C766.866 306.78 761.756 309.93 758.396 316.23C755.036 322.53 753.356 332.96 753.356 347.52H791.366C791.926 344.72 792.276 342.13 792.416 339.75C792.696 337.23 792.836 334.92 792.836 332.82C792.836 323.86 791.086 317.28 787.586 313.08C784.086 308.88 779.466 306.78 773.726 306.78ZM832.379 307.41V301.53H871.439V318.75C879.979 305.87 890.129 299.43 901.889 299.43C906.229 299.43 910.429 300.83 914.489 303.63C918.549 306.29 921.909 311.33 924.569 318.75L905.879 328.83C903.919 323.09 901.609 319.24 898.949 317.28C896.429 315.18 893.699 314.13 890.759 314.13C887.679 314.13 884.669 315.11 881.729 317.07C878.789 319.03 875.779 322.67 872.699 327.99V390.36C872.699 395.12 872.909 397.99 873.329 398.97C873.749 399.81 875.079 400.37 877.319 400.65L893.069 402.12V408H832.379V402.12L843.929 400.65C846.169 400.37 847.499 399.81 847.919 398.97C848.339 397.99 848.549 395.12 848.549 390.36V319.17C848.549 314.41 848.339 311.61 847.919 310.77C847.499 309.79 846.169 309.16 843.929 308.88L832.379 307.41Z" fill="black" fill-opacity="0.22"/>
</svg>
