<svg width="80" height="80" viewBox="0 0 80 80" fill="none" xmlns="http://www.w3.org/2000/svg">
<g clip-path="url(#clip0_517_186)">
<mask id="path-1-inside-1_517_186" fill="white">
<path d="M0 5C0 2.23858 2.23858 0 5 0H74.4C77.1614 0 79.4 2.23858 79.4 5V75C79.4 77.7614 77.1614 80 74.4 80H5.00001C2.23858 80 0 77.7614 0 75V5Z"/>
</mask>
<path d="M1.70415 39.5212C1.70228 46.2428 3.45856 52.8059 6.7981 58.5907L1.38477 78.3557L21.6117 73.0521C27.2063 76.0977 33.4745 77.6936 39.8443 77.694H39.861C60.889 77.694 78.0062 60.5829 78.0152 39.5513C78.0192 29.36 74.0539 19.7767 66.8496 12.5668C59.6465 5.35752 50.0666 1.38511 39.8595 1.38046C18.8291 1.38046 1.71314 18.4905 1.70446 39.5212" fill="url(#paint0_linear_517_186)"/>
<path d="M0.341549 39.5088C0.339378 46.4722 2.1586 53.2701 5.61721 59.262L0.00976562 79.7355L20.962 74.2419C26.735 77.3895 33.2349 79.049 39.8488 79.0515H39.8659C61.6482 79.0515 79.3803 61.325 79.3896 39.5405C79.3933 28.9829 75.2854 19.0552 67.8237 11.587C60.3611 4.11969 50.4386 0.00434109 39.8659 0C18.0798 0 0.350231 17.724 0.341549 39.5088ZM12.8194 58.2301L12.0371 56.9882C8.74837 51.7591 7.01256 45.7163 7.01504 39.5113C7.02186 21.4043 21.758 6.67287 39.8783 6.67287C48.6535 6.67659 56.9003 10.0974 63.1031 16.3039C69.3056 22.511 72.7186 30.7622 72.7164 39.538C72.7084 57.645 57.9719 72.3783 39.8659 72.3783H39.8529C33.9574 72.3752 28.1753 70.7919 23.1329 67.8L21.9329 67.0884L9.49938 70.3482L12.8194 58.2301Z" fill="url(#paint1_linear_517_186)"/>
<path d="M29.9879 22.9916C29.248 21.3473 28.4694 21.3141 27.7658 21.2852C27.1897 21.2604 26.5311 21.2623 25.8731 21.2623C25.2145 21.2623 24.1444 21.5101 23.2399 22.4976C22.3345 23.4862 19.7832 25.875 19.7832 30.7336C19.7832 35.5925 23.3221 40.288 23.8155 40.9476C24.3094 41.6059 30.6474 51.8955 40.6852 55.8539C49.0275 59.1435 50.7252 58.4893 52.5358 58.3243C54.3466 58.16 58.3789 55.9361 59.2015 53.6301C60.0248 51.3243 60.0248 49.3479 59.7779 48.9349C59.5311 48.5234 58.8725 48.2763 57.8849 47.7826C56.897 47.2887 52.0418 44.8995 51.1367 44.5699C50.2313 44.2406 49.573 44.0763 48.9144 45.0651C48.2558 46.0524 46.3646 48.2763 45.7882 48.9349C45.2124 49.595 44.6359 49.6772 43.6486 49.1832C42.6604 48.6877 39.4799 47.6462 35.7066 44.2821C32.7708 41.6645 30.7888 38.4319 30.2127 37.4431C29.6365 36.4558 30.151 35.9206 30.6462 35.4285C31.0899 34.986 31.6341 34.2753 32.1283 33.6989C32.6207 33.1221 32.7851 32.7107 33.1144 32.0521C33.444 31.3928 33.279 30.8161 33.0325 30.3221C32.7851 29.8282 30.866 24.9442 29.9879 22.9916Z" fill="white"/>
</g>
<path d="M0 5C0 1.68629 2.68629 -1 6 -1H73.4C76.7137 -1 79.4 1.68629 79.4 5C79.4 2.79086 77.1614 1 74.4 1H5C2.23858 1 0 2.79086 0 5ZM79.4 75C79.4 78.3137 76.7137 81 73.4 81H6C2.68629 81 0 78.3137 0 75C0 77.2091 2.23858 79 5 79H74.4C77.1614 79 79.4 77.2091 79.4 75ZM0 80V0V80ZM79.4 0V80V0Z" fill="white" mask="url(#path-1-inside-1_517_186)"/>
<defs>
<linearGradient id="paint0_linear_517_186" x1="3832.9" y1="7698.9" x2="3832.9" y2="1.38046" gradientUnits="userSpaceOnUse">
<stop stop-color="#1FAF38"/>
<stop offset="1" stop-color="#60D669"/>
</linearGradient>
<linearGradient id="paint1_linear_517_186" x1="3969" y1="7973.55" x2="3969" y2="0" gradientUnits="userSpaceOnUse">
<stop stop-color="#F9F9F9"/>
<stop offset="1" stop-color="white"/>
</linearGradient>
<clipPath id="clip0_517_186">
<path d="M0 5C0 2.23858 2.23858 0 5 0H74.4C77.1614 0 79.4 2.23858 79.4 5V75C79.4 77.7614 77.1614 80 74.4 80H5.00001C2.23858 80 0 77.7614 0 75V5Z" fill="white"/>
</clipPath>
</defs>
</svg>
