<svg width="120" height="120" viewBox="0 0 120 120" fill="none" xmlns="http://www.w3.org/2000/svg">
<path d="M35 100H55C55 105.5 50.5 110 45 110C39.5 110 35 105.5 35 100ZM25 95H65V85H25V95ZM82.5 47.5C82.5 66.6 69.2 76.8 63.65 80H26.35C20.8 76.8 7.5 66.6 7.5 47.5C7.5 26.8 24.3 10 45 10C65.7 10 82.5 26.8 82.5 47.5ZM72.5 47.5C72.5 32.35 60.15 20 45 20C29.85 20 17.5 32.35 17.5 47.5C17.5 59.85 24.95 66.95 29.25 70H60.75C65.05 66.95 72.5 59.85 72.5 47.5ZM106.85 36.85L100 40L106.85 43.15L110 50L113.15 43.15L120 40L113.15 36.85L110 30L106.85 36.85ZM95 30L99.7 19.7L110 15L99.7 10.3L95 0L90.3 10.3L80 15L90.3 19.7L95 30Z" fill="#005F63"/>
<path d="M59.1671 47.1C58.8999 46.7958 58.7526 46.4048 58.7526 46C58.7526 45.5951 58.8999 45.2041 59.1671 44.9L61.3005 42.5C61.5356 42.2378 61.6815 41.9078 61.7175 41.5575C61.7534 41.2072 61.6774 40.8545 61.5005 40.55L58.1671 34.7833C57.992 34.4792 57.7253 34.2381 57.4051 34.0945C57.0848 33.9508 56.7274 33.9119 56.3838 33.9833L53.2505 34.6167C52.8518 34.699 52.4367 34.6326 52.0836 34.43C51.7305 34.2273 51.4638 33.9025 51.3338 33.5167L50.3171 30.4667C50.2053 30.1356 49.9923 29.8481 49.7082 29.6447C49.4241 29.4414 49.0832 29.3324 48.7338 29.3333H42.0671C41.7037 29.3144 41.344 29.4149 41.0431 29.6195C40.7421 29.8242 40.5164 30.1217 40.4005 30.4667L39.4671 33.5167C39.3371 33.9025 39.0704 34.2273 38.7173 34.43C38.3642 34.6326 37.9492 34.699 37.5505 34.6167L34.3338 33.9833C34.0081 33.9373 33.676 33.9887 33.3794 34.1311C33.0828 34.2734 32.835 34.5004 32.6671 34.7833L29.3338 40.55C29.1524 40.8511 29.0708 41.2018 29.1008 41.552C29.1307 41.9023 29.2706 42.2341 29.5005 42.5L31.6171 44.9C31.8843 45.2041 32.0317 45.5951 32.0317 46C32.0317 46.4048 31.8843 46.7958 31.6171 47.1L29.5005 49.5C29.2706 49.7659 29.1307 50.0977 29.1008 50.448C29.0708 50.7982 29.1524 51.1489 29.3338 51.45L32.6671 57.2167C32.8423 57.5208 33.109 57.7619 33.4292 57.9055C33.7495 58.0492 34.1069 58.0881 34.4505 58.0167L37.5838 57.3833C37.9825 57.3009 38.3976 57.3673 38.7507 57.57C39.1038 57.7726 39.3705 58.0975 39.5005 58.4833L40.5171 61.5333C40.6331 61.8783 40.8588 62.1758 41.1598 62.3805C41.4607 62.5851 41.8204 62.6856 42.1838 62.6667H48.8505C49.1999 62.6676 49.5407 62.5586 49.8249 62.3553C50.109 62.1519 50.322 61.8644 50.4338 61.5333L51.4505 58.4833C51.5805 58.0975 51.8472 57.7726 52.2003 57.57C52.5534 57.3673 52.9684 57.3009 53.3671 57.3833L56.5005 58.0167C56.8441 58.0881 57.2015 58.0492 57.5217 57.9055C57.8419 57.7619 58.1087 57.5208 58.2838 57.2167L61.6171 51.45C61.7941 51.1455 61.8701 50.7928 61.8341 50.4425C61.7982 50.0921 61.6522 49.7622 61.4171 49.5L59.1671 47.1ZM56.6838 49.3333L58.0171 50.8333L55.8838 54.5333L53.9171 54.1333C52.7168 53.888 51.4681 54.0919 50.4081 54.7063C49.3482 55.3208 48.5507 56.3031 48.1671 57.4667L47.5338 59.3333H43.2671L42.6671 57.4333C42.2836 56.2697 41.4861 55.2875 40.4262 54.673C39.3662 54.0585 38.1175 53.8546 36.9171 54.1L34.9505 54.5L32.7838 50.8167L34.1171 49.3167C34.9371 48.4 35.3904 47.2132 35.3904 45.9833C35.3904 44.7534 34.9371 43.5667 34.1171 42.65L32.7838 41.15L34.9171 37.4833L36.8838 37.8833C38.0842 38.1287 39.3329 37.9248 40.3928 37.3103C41.4528 36.6958 42.2502 35.7136 42.6338 34.55L43.2671 32.6667H47.5338L48.1671 34.5667C48.5507 35.7303 49.3482 36.7125 50.4081 37.327C51.4681 37.9415 52.7168 38.1454 53.9171 37.9L55.8838 37.5L58.0171 41.2L56.6838 42.7C55.8731 43.6146 55.4254 44.7945 55.4254 46.0167C55.4254 47.2389 55.8731 48.4187 56.6838 49.3333ZM45.4005 39.3333C44.0819 39.3333 42.793 39.7243 41.6967 40.4569C40.6003 41.1894 39.7459 42.2306 39.2413 43.4488C38.7367 44.6669 38.6047 46.0074 38.8619 47.3006C39.1191 48.5938 39.7541 49.7817 40.6864 50.714C41.6188 51.6464 42.8067 52.2813 44.0999 52.5386C45.3931 52.7958 46.7335 52.6638 47.9517 52.1592C49.1699 51.6546 50.2111 50.8001 50.9436 49.7038C51.6762 48.6075 52.0671 47.3185 52.0671 46C52.0671 44.2319 51.3648 42.5362 50.1145 41.2859C48.8643 40.0357 47.1686 39.3333 45.4005 39.3333ZM45.4005 49.3333C44.7412 49.3333 44.0967 49.1378 43.5486 48.7716C43.0004 48.4053 42.5732 47.8847 42.3209 47.2756C42.0686 46.6665 42.0026 45.9963 42.1312 45.3497C42.2598 44.7031 42.5773 44.1091 43.0435 43.643C43.5096 43.1768 44.1036 42.8593 44.7502 42.7307C45.3968 42.6021 46.067 42.6681 46.6761 42.9204C47.2852 43.1727 47.8058 43.5999 48.172 44.1481C48.5383 44.6963 48.7338 45.3407 48.7338 46C48.7338 46.884 48.3826 47.7319 47.7575 48.357C47.1324 48.9821 46.2845 49.3333 45.4005 49.3333Z" fill="#005F63"/>
</svg>
