<svg width="34" height="45" viewBox="0 0 34 45" fill="none" xmlns="http://www.w3.org/2000/svg">
<g clip-path="url(#clip0_567_1191)">
<path d="M18.958 43.875C23.4668 38.2324 33.75 24.5566 33.75 16.875C33.75 7.55859 26.1914 0 16.875 0C7.55859 0 0 7.55859 0 16.875C0 24.5566 10.2832 38.2324 14.792 43.875C15.873 45.2197 17.877 45.2197 18.958 43.875ZM16.875 11.25C18.3668 11.25 19.7976 11.8426 20.8525 12.8975C21.9074 13.9524 22.5 15.3832 22.5 16.875C22.5 18.3668 21.9074 19.7976 20.8525 20.8525C19.7976 21.9074 18.3668 22.5 16.875 22.5C15.3832 22.5 13.9524 21.9074 12.8975 20.8525C11.8426 19.7976 11.25 18.3668 11.25 16.875C11.25 15.3832 11.8426 13.9524 12.8975 12.8975C13.9524 11.8426 15.3832 11.25 16.875 11.25Z" fill="white"/>
</g>
<defs>
<clipPath id="clip0_567_1191">
<rect width="33.75" height="45" fill="white"/>
</clipPath>
</defs>
</svg>
