<svg width="24" height="24" viewBox="0 0 24 24" fill="none" xmlns="http://www.w3.org/2000/svg">
<path d="M21.0394 9.76875C20.6737 9.38719 20.2959 8.99344 20.1441 8.62687C20.0034 8.28656 19.9959 7.78312 19.9875 7.25062C19.9744 6.37125 19.9594 5.37563 19.2919 4.70813C18.6244 4.04063 17.625 4.02562 16.7494 4.0125C16.2169 4.00406 15.7181 3.99656 15.3731 3.85594C15.0066 3.70406 14.6128 3.32625 14.2313 2.96062C13.6088 2.36437 12.9038 1.6875 12 1.6875C11.0962 1.6875 10.3912 2.36437 9.76875 2.96062C9.38719 3.32625 8.99344 3.70406 8.62687 3.85594C8.28656 3.99656 7.78312 4.00406 7.25062 4.0125C6.37125 4.02562 5.37563 4.04063 4.70813 4.70813C4.04063 5.37563 4.02562 6.375 4.0125 7.25062C4.00406 7.78312 3.99656 8.28187 3.85594 8.62687C3.70406 8.99344 3.32625 9.38719 2.96062 9.76875C2.36437 10.3912 1.6875 11.0962 1.6875 12C1.6875 12.9038 2.36437 13.6088 2.96062 14.2313C3.32625 14.6128 3.70406 15.0066 3.85594 15.3731C3.99656 15.7134 4.00406 16.2169 4.0125 16.7494C4.02562 17.6288 4.04063 18.6244 4.70813 19.2919C5.37563 19.9594 6.375 19.9744 7.25062 19.9875C7.78312 19.9959 8.28187 20.0034 8.62687 20.1441C8.99344 20.2959 9.38719 20.6737 9.76875 21.0394C10.3912 21.6356 11.0962 22.3125 12 22.3125C12.9038 22.3125 13.6088 21.6356 14.2313 21.0394C14.6128 20.6737 15.0066 20.2959 15.3731 20.1441C15.7134 20.0034 16.2169 19.9959 16.7494 19.9875C17.6288 19.9744 18.6244 19.9594 19.2919 19.2919C19.9594 18.6244 19.9744 17.6288 19.9875 16.7494C19.9959 16.2169 20.0034 15.7181 20.1441 15.3731C20.2959 15.0066 20.6737 14.6128 21.0394 14.2313C21.6356 13.6088 22.3125 12.9038 22.3125 12C22.3125 11.0962 21.6356 10.3912 21.0394 9.76875ZM20.2275 13.4531C19.7897 13.9087 19.3369 14.3812 19.1025 14.9437C18.8794 15.4819 18.87 16.1175 18.8606 16.7325C18.8503 17.43 18.8391 18.1519 18.495 18.4969C18.1509 18.8419 17.4281 18.8522 16.7306 18.8625C16.1156 18.8719 15.48 18.8813 14.9419 19.1044C14.3794 19.3369 13.9106 19.7897 13.4503 20.2294C12.9581 20.6981 12.4491 21.1894 11.9981 21.1894C11.5472 21.1894 11.0381 20.7009 10.545 20.2294C10.0894 19.7916 9.61688 19.3387 9.05438 19.1044C8.51625 18.8813 7.88062 18.8719 7.26562 18.8625C6.56812 18.8522 5.84625 18.8409 5.50125 18.4969C5.15625 18.1528 5.14594 17.43 5.13562 16.7325C5.12625 16.1175 5.11688 15.4819 4.89375 14.9437C4.66125 14.3812 4.20844 13.9125 3.76875 13.4522C3.30094 12.96 2.8125 12.4509 2.8125 12C2.8125 11.5491 3.30094 11.04 3.7725 10.5469C4.21031 10.0913 4.66313 9.61875 4.8975 9.05625C5.12063 8.51813 5.13 7.8825 5.13937 7.2675C5.14969 6.57 5.16094 5.84812 5.505 5.50313C5.84906 5.15813 6.57188 5.14781 7.26937 5.1375C7.88438 5.12812 8.52 5.11875 9.05813 4.89563C9.62063 4.66313 10.0894 4.21031 10.5497 3.77063C11.04 3.30094 11.5491 2.8125 12 2.8125C12.4509 2.8125 12.96 3.30094 13.4531 3.7725C13.9087 4.21031 14.3812 4.66313 14.9437 4.8975C15.4819 5.12063 16.1175 5.13 16.7325 5.13937C17.43 5.14969 18.1519 5.16094 18.4969 5.505C18.8419 5.84906 18.8522 6.57188 18.8625 7.26937C18.8719 7.88438 18.8813 8.52 19.1044 9.05813C19.3369 9.62063 19.7897 10.0894 20.2294 10.5497C20.6981 11.0419 21.1894 11.5509 21.1894 12.0019C21.1894 12.4528 20.6991 12.96 20.2275 13.4531ZM16.1475 9.3525C16.2528 9.45797 16.312 9.60094 16.312 9.75C16.312 9.89906 16.2528 10.042 16.1475 10.1475L10.8975 15.3975C10.792 15.5028 10.6491 15.562 10.5 15.562C10.3509 15.562 10.208 15.5028 10.1025 15.3975L7.8525 13.1475C7.75314 13.0409 7.69905 12.8998 7.70162 12.7541C7.70419 12.6084 7.76322 12.4693 7.86628 12.3663C7.96934 12.2632 8.10838 12.2042 8.25411 12.2016C8.39983 12.199 8.54087 12.2531 8.6475 12.3525L10.5 14.2041L15.3525 9.3525C15.458 9.24716 15.6009 9.18799 15.75 9.18799C15.8991 9.18799 16.042 9.24716 16.1475 9.3525Z" fill="black"/>
</svg>
