<svg width="25" height="43" viewBox="0 0 25 43" fill="none" xmlns="http://www.w3.org/2000/svg">
<path d="M20.0625 0.875H5.0625C3.8193 0.875 2.62701 1.36886 1.74794 2.24794C0.86886 3.12701 0.375 4.3193 0.375 5.5625V37.4375C0.375 38.6807 0.86886 39.873 1.74794 40.7521C2.62701 41.6312 3.8193 42.125 5.0625 42.125H20.0625C21.3057 42.125 22.498 41.6312 23.3771 40.7521C24.2561 39.873 24.75 38.6807 24.75 37.4375V5.5625C24.75 4.3193 24.2561 3.12701 23.3771 2.24794C22.498 1.36886 21.3057 0.875 20.0625 0.875ZM12.5625 40.25C11.0062 40.25 9.75 38.9938 9.75 37.4375C9.75 35.8813 11.0062 34.625 12.5625 34.625C14.1187 34.625 15.375 35.8813 15.375 37.4375C15.375 38.9938 14.1187 40.25 12.5625 40.25ZM21 32.75H4.125V6.5H21V32.75Z" fill="white"/>
</svg>
