<svg width="27" height="34" viewBox="0 0 27 34" fill="none" xmlns="http://www.w3.org/2000/svg">
<path d="M3.28403 10.1449C2.80778 7.00245 5.02528 4.17495 8.41278 3.13745C9.01425 2.95336 9.66328 3.00567 10.2275 3.28371C10.7917 3.56176 11.2286 4.04458 11.449 4.6337L12.5353 7.5337C12.7099 8.00018 12.7412 8.50821 12.6252 8.99261C12.5092 9.47702 12.2511 9.91572 11.884 10.2524L8.65278 13.2162C8.49312 13.3624 8.37416 13.5475 8.30755 13.7535C8.24094 13.9595 8.22896 14.1792 8.27278 14.3912L8.30153 14.5212L8.38153 14.8474C8.45278 15.1224 8.56028 15.5099 8.71153 15.9724C9.01153 16.8912 9.49028 18.1262 10.2028 19.3599C10.9153 20.5937 11.7453 21.6262 12.3903 22.3449C12.7265 22.7189 13.0776 23.0792 13.4428 23.4249L13.5428 23.5174C13.7044 23.6606 13.9003 23.7594 14.1115 23.8043C14.3227 23.8492 14.5419 23.8387 14.7478 23.7737L18.9303 22.4574C19.4055 22.3081 19.9145 22.3041 20.392 22.4459C20.8695 22.5878 21.2937 22.8691 21.6103 23.2537L23.589 25.6562C24.414 26.6562 24.3165 28.1262 23.3678 29.0099C20.7753 31.4262 17.2103 31.9224 14.7303 29.9274C11.6912 27.475 9.12863 24.4849 7.17028 21.1062C5.19755 17.7287 3.87912 14.0108 3.28403 10.1449ZM10.8915 14.5549L13.574 12.0949C14.3081 11.4215 14.8243 10.5441 15.0564 9.57528C15.2884 8.60647 15.2258 7.59042 14.8765 6.65745L13.789 3.75745C13.3454 2.57261 12.4665 1.60157 11.3317 1.04227C10.1969 0.482982 8.89143 0.377541 7.68153 0.747447C3.47528 2.0362 0.097783 5.80745 0.812783 10.5187C1.45461 14.6961 2.87822 18.715 5.00903 22.3649C7.12128 26.0085 9.88509 29.2329 13.1628 31.8774C16.8815 34.8649 21.849 33.8462 25.0728 30.8399C25.9957 29.9805 26.5559 28.8012 26.6388 27.5428C26.7217 26.2844 26.3212 25.0418 25.519 24.0687L23.5403 21.6662C22.9071 20.8967 22.0584 20.334 21.1031 20.0502C20.1479 19.7665 19.1296 19.7747 18.179 20.0737L14.7078 21.1662C14.5524 21.0064 14.4002 20.8435 14.2515 20.6774C13.5379 19.8884 12.9067 19.0285 12.3678 18.1112C11.8425 17.1857 11.4132 16.209 11.0865 15.1962C11.0171 14.9842 10.9521 14.7708 10.8915 14.5562" fill="#2B7E8A"/>
</svg>
