<svg width="24" height="23" viewBox="0 0 24 23" fill="none" xmlns="http://www.w3.org/2000/svg">
<path d="M17.9767 9.76162L11.3934 3.17828C11.0898 2.86394 10.9218 2.44294 10.9256 2.00594C10.9294 1.56895 11.1047 1.15093 11.4137 0.841915C11.7227 0.532902 12.1407 0.35762 12.5777 0.353823C13.0147 0.350025 13.4357 0.518016 13.75 0.821613L23.1784 10.2499C23.3337 10.4044 23.4569 10.588 23.541 10.7902C23.6251 10.9924 23.6684 11.2093 23.6684 11.4283C23.6684 11.6473 23.6251 11.8641 23.541 12.0664C23.4569 12.2686 23.3337 12.4522 23.1784 12.6066L13.75 22.035C13.5963 22.1941 13.4124 22.3211 13.209 22.4085C13.0057 22.4958 12.787 22.5418 12.5657 22.5437C12.3444 22.5456 12.1249 22.5035 11.9201 22.4197C11.7153 22.3359 11.5292 22.2121 11.3727 22.0556C11.2162 21.8991 11.0925 21.713 11.0087 21.5082C10.9249 21.3034 10.8827 21.0839 10.8846 20.8626C10.8865 20.6413 10.9325 20.4226 11.0199 20.2193C11.1072 20.0159 11.2342 19.832 11.3934 19.6783L17.9767 13.0949H2.00004C1.55801 13.0949 1.13409 12.9194 0.821529 12.6068C0.508969 12.2942 0.333374 11.8703 0.333374 11.4283C0.333374 10.9863 0.508969 10.5623 0.821529 10.2498C1.13409 9.93721 1.55801 9.76162 2.00004 9.76162H17.9767Z" fill="#040D43"/>
</svg>
