<svg width="17" height="28" viewBox="0 0 17 28" fill="none" xmlns="http://www.w3.org/2000/svg">
<path fill-rule="evenodd" clip-rule="evenodd" d="M15.7229 12.5271C16.1134 12.9178 16.3328 13.4476 16.3328 14C16.3328 14.5524 16.1134 15.0822 15.7229 15.4729L3.93744 27.2584C3.74526 27.4573 3.51538 27.616 3.2612 27.7252C3.00703 27.8344 2.73365 27.8919 2.45703 27.8943C2.1804 27.8967 1.90607 27.844 1.65004 27.7392C1.394 27.6345 1.16139 27.4798 0.965785 27.2842C0.770175 27.0886 0.615481 26.856 0.510729 26.5999C0.405977 26.3439 0.353266 26.0696 0.355669 25.7929C0.358073 25.5163 0.415545 25.2429 0.52473 24.9888C0.633916 24.7346 0.792628 24.5047 0.991607 24.3125L11.3041 14L0.991607 3.68751C0.612111 3.29459 0.402123 2.76833 0.40687 2.22209C0.411617 1.67585 0.630718 1.15332 1.01698 0.767054C1.40325 0.380787 1.92578 0.161686 2.47202 0.156939C3.01827 0.152192 3.54452 0.362181 3.93744 0.741677L15.7229 12.5271Z" fill="#595959"/>
</svg>
