<svg width="20" height="28" viewBox="0 0 20 28" fill="none" xmlns="http://www.w3.org/2000/svg">
<path fill-rule="evenodd" clip-rule="evenodd" d="M0.783535 10.7165C0.549451 10.4822 0.417969 10.1645 0.417969 9.83321C0.417969 9.50196 0.549451 9.18426 0.783535 8.94988L9.11687 0.616544C9.35125 0.382459 9.66895 0.250977 10.0002 0.250977C10.3315 0.250977 10.6492 0.382459 10.8835 0.616544L19.2169 8.94988C19.3397 9.06432 19.4382 9.20232 19.5065 9.35565C19.5748 9.50898 19.6116 9.67451 19.6145 9.84234C19.6175 10.0102 19.5866 10.1769 19.5237 10.3325C19.4609 10.4882 19.3673 10.6296 19.2486 10.7483C19.1299 10.867 18.9885 10.9606 18.8329 11.0234C18.6772 11.0863 18.5105 11.1172 18.3427 11.1142C18.1748 11.1112 18.0093 11.0745 17.856 11.0062C17.7026 10.9379 17.5646 10.8394 17.4502 10.7165L11.2502 4.51655V18.1666C11.2502 19.3549 11.6169 21.1666 12.6819 22.6449C13.6985 24.0582 15.4069 25.2499 18.3335 25.2499C18.6651 25.2499 18.983 25.3816 19.2174 25.616C19.4518 25.8504 19.5835 26.1684 19.5835 26.4999C19.5835 26.8314 19.4518 27.1494 19.2174 27.3838C18.983 27.6182 18.6651 27.7499 18.3335 27.7499C14.5935 27.7499 12.1335 26.1632 10.6519 24.1049C9.21687 22.1116 8.7502 19.7549 8.7502 18.1666V4.51655L2.5502 10.7165C2.31583 10.9506 1.99812 11.0821 1.66687 11.0821C1.33562 11.0821 1.01791 10.9506 0.783535 10.7165Z" fill="#2B7E8A"/>
</svg>
