<svg width="24" height="24" viewBox="0 0 24 24" fill="none" xmlns="http://www.w3.org/2000/svg">
<path d="M5.75 9.77124L5.28276 9.80193C5.07934 9.81528 4.87643 9.83551 4.67438 9.86258C3.82932 9.97622 3.19483 10.2083 2.70155 10.7016C2.20878 11.1953 1.9751 11.8304 1.86261 12.6741L1.86251 12.6749C1.75103 13.5009 1.75 14.5649 1.75 15.945V16.055C1.75 17.4351 1.75103 18.4991 1.86251 19.3251L1.86254 19.3254C1.97617 20.1706 2.20823 20.8051 2.70155 21.2984C3.19475 21.7916 3.82914 22.0238 4.67431 22.1384L5.75 9.77124ZM5.75 9.77124V9.303M5.75 9.77124V9.303M5.75 9.303V8C5.75 6.3424 6.40848 4.75269 7.58058 3.58058C8.75269 2.40848 10.3424 1.75 12 1.75C13.6576 1.75 15.2473 2.40848 16.4194 3.58058C17.5915 4.75269 18.25 6.3424 18.25 8V9.303V9.769M5.75 9.303L18.25 9.769M18.25 9.769L18.7148 9.80176M18.25 9.769L18.7148 9.80176M18.7148 9.80176C18.9351 9.81729 19.1362 9.83632 19.3234 9.86227L19.3259 9.86261M18.7148 9.80176L19.3259 9.86261M19.3259 9.86261C20.1696 9.97511 20.8047 10.2088 21.2984 10.7016M19.3259 9.86261L21.2984 10.7016M21.2984 10.7016C21.7916 11.1947 22.0238 11.8291 22.1384 12.6743M21.2984 10.7016L22.1384 12.6743M22.1384 12.6743C22.249 13.5007 22.25 14.565 22.25 15.945M22.1384 12.6743L22.25 15.945M22.25 15.945V16.055M22.25 15.945V16.055M22.25 16.055C22.25 17.4345 22.249 18.4986 22.1385 19.3248L22.25 16.055ZM17.246 9.75299L17.75 9.75704V9.253V8C17.75 6.47501 17.1442 5.01247 16.0659 3.93414C14.9875 2.8558 13.525 2.25 12 2.25C10.475 2.25 9.01247 2.8558 7.93414 3.93414C6.8558 5.01247 6.25 6.47501 6.25 8V9.253V9.75703L6.75401 9.75299C7.12563 9.75 7.52154 9.75 7.945 9.75H16.055C16.4785 9.75 16.8754 9.75 17.246 9.75299ZM3.05545 11.0554L3.05481 11.0561C2.67153 11.4408 2.46409 11.9508 2.35749 12.7412L2.35741 12.7417C2.25095 13.5376 2.25 14.5791 2.25 16C2.25 17.4209 2.25095 18.4614 2.35741 19.2573L2.35747 19.2577C2.46394 20.0482 2.67012 20.5592 3.05545 20.9446L3.05609 20.9452C3.44076 21.3285 3.9508 21.5359 4.74117 21.6425L4.7417 21.6426C5.53758 21.7491 6.57915 21.75 8 21.75H16C17.4209 21.75 18.4614 21.7491 19.2573 21.6426L19.2577 21.6425C20.0482 21.5361 20.5592 21.3299 20.9446 20.9446L20.9452 20.9439C21.3285 20.5592 21.5359 20.0492 21.6425 19.2588L21.6426 19.2582C21.7491 18.4614 21.75 17.4209 21.75 16C21.75 14.5791 21.7491 13.5386 21.6426 12.7427L21.6425 12.7423C21.5361 11.9518 21.3299 11.4408 20.9446 11.0554L20.9439 11.0548C20.5592 10.6715 20.0492 10.4641 19.2588 10.3575L19.2582 10.3574C18.4614 10.251 17.4209 10.25 16 10.25H8C6.57919 10.25 5.53756 10.2509 4.74262 10.3574L4.74226 10.3575C3.9518 10.4639 3.44077 10.6701 3.05545 11.0554ZM22.1384 19.3257C22.0238 20.1709 21.7916 20.8053 21.2984 21.2984C20.8053 21.7916 20.1709 22.0238 19.3257 22.1384C18.4993 22.249 17.435 22.25 16.055 22.25H7.945C6.5655 22.25 5.50143 22.249 4.67516 22.1385L22.1384 19.3257Z" fill="#7EAFC7" stroke="black"/>
</svg>
