<svg width="115" height="115" viewBox="0 0 115 115" fill="none" xmlns="http://www.w3.org/2000/svg">
<mask id="path-1-inside-1_517_330" fill="white">
<path d="M107.023 58.0239C107.023 67.3844 104.396 76.5568 99.4398 84.4976C94.4837 92.4383 87.3981 98.8283 78.9893 102.941C70.5805 107.053 61.1863 108.722 51.8756 107.758C42.5649 106.794 33.7117 103.237 26.3234 97.4892C18.9352 91.7419 13.3086 84.0361 10.084 75.2486C6.85939 66.4611 6.16625 56.9449 8.08345 47.7829C10.0007 38.6209 14.4512 30.1811 20.9286 23.4238C27.4061 16.6666 35.6503 11.8633 44.723 9.56054L46.0536 14.803C37.9623 16.8566 30.6099 21.1404 24.8331 27.1667C19.0564 33.193 15.0873 40.7198 13.3775 48.8907C11.6677 57.0617 12.2858 65.5484 15.1616 73.3853C18.0374 81.2223 23.0553 88.0945 29.6444 93.2201C36.2334 98.3457 44.1289 101.519 52.4324 102.378C60.736 103.238 69.114 101.749 76.6132 98.0817C84.1124 94.4144 90.4315 88.7155 94.8515 81.6338C99.2714 74.5521 101.615 66.3718 101.615 58.0239H107.023Z"/>
</mask>
<path d="M107.023 58.0239C107.023 67.3844 104.396 76.5568 99.4398 84.4976C94.4837 92.4383 87.3981 98.8283 78.9893 102.941C70.5805 107.053 61.1863 108.722 51.8756 107.758C42.5649 106.794 33.7117 103.237 26.3234 97.4892C18.9352 91.7419 13.3086 84.0361 10.084 75.2486C6.85939 66.4611 6.16625 56.9449 8.08345 47.7829C10.0007 38.6209 14.4512 30.1811 20.9286 23.4238C27.4061 16.6666 35.6503 11.8633 44.723 9.56054L46.0536 14.803C37.9623 16.8566 30.6099 21.1404 24.8331 27.1667C19.0564 33.193 15.0873 40.7198 13.3775 48.8907C11.6677 57.0617 12.2858 65.5484 15.1616 73.3853C18.0374 81.2223 23.0553 88.0945 29.6444 93.2201C36.2334 98.3457 44.1289 101.519 52.4324 102.378C60.736 103.238 69.114 101.749 76.6132 98.0817C84.1124 94.4144 90.4315 88.7155 94.8515 81.6338C99.2714 74.5521 101.615 66.3718 101.615 58.0239H107.023Z" stroke="black" stroke-width="12" mask="url(#path-1-inside-1_517_330)"/>
<mask id="path-2-inside-2_517_330" fill="white">
<path d="M90.4566 81.49C86.9729 86.266 82.4981 90.2325 77.3387 93.118C72.1792 96.0035 66.4571 97.7398 60.5642 98.208C54.6713 98.6762 48.7468 97.8652 43.1964 95.8305C37.6461 93.7959 32.6012 90.5856 28.407 86.4197C24.2129 82.2537 20.9687 77.2305 18.8966 71.6941C16.8246 66.1576 15.9736 60.2387 16.402 54.3428C16.8305 48.4468 18.5281 42.7131 21.3788 37.5344C24.2294 32.3556 28.1657 27.8541 32.918 24.3382L35.5571 27.9055C31.3189 31.0411 27.8084 35.0556 25.2662 39.6742C22.7239 44.2927 21.2099 49.4062 20.8278 54.6644C20.4457 59.9225 21.2046 65.2012 23.0525 70.1387C24.9004 75.0763 27.7937 79.5561 31.5341 83.2714C35.2746 86.9867 39.7738 89.8497 44.7237 91.6642C49.6737 93.4788 54.9573 94.2021 60.2128 93.7845C65.4682 93.367 70.5714 91.8185 75.1727 89.2451C79.774 86.6718 83.7647 83.1343 86.8716 78.875L90.4566 81.49Z"/>
</mask>
<path d="M90.4566 81.49C86.9729 86.266 82.4981 90.2325 77.3387 93.118C72.1792 96.0035 66.4571 97.7398 60.5642 98.208C54.6713 98.6762 48.7468 97.8652 43.1964 95.8305C37.6461 93.7959 32.6012 90.5856 28.407 86.4197C24.2129 82.2537 20.9687 77.2305 18.8966 71.6941C16.8246 66.1576 15.9736 60.2387 16.402 54.3428C16.8305 48.4468 18.5281 42.7131 21.3788 37.5344C24.2294 32.3556 28.1657 27.8541 32.918 24.3382L35.5571 27.9055C31.3189 31.0411 27.8084 35.0556 25.2662 39.6742C22.7239 44.2927 21.2099 49.4062 20.8278 54.6644C20.4457 59.9225 21.2046 65.2012 23.0525 70.1387C24.9004 75.0763 27.7937 79.5561 31.5341 83.2714C35.2746 86.9867 39.7738 89.8497 44.7237 91.6642C49.6737 93.4788 54.9573 94.2021 60.2128 93.7845C65.4682 93.367 70.5714 91.8185 75.1727 89.2451C79.774 86.6718 83.7647 83.1343 86.8716 78.875L90.4566 81.49Z" stroke="black" stroke-width="12" mask="url(#path-2-inside-2_517_330)"/>
<mask id="path-3-inside-3_517_330" fill="white">
<path d="M66.076 88.2628C61.434 89.2752 56.6281 89.2724 51.9873 88.2546C47.3465 87.2367 42.9805 85.2279 39.1884 82.3656C35.3962 79.5034 32.2675 75.8553 30.0165 71.6713C27.7655 67.4873 26.4454 62.8662 26.1466 58.1245C25.8478 53.3828 26.5774 48.6325 28.2854 44.1991C29.9933 39.7656 32.6394 35.7536 36.0422 32.438C39.445 29.1223 43.5243 26.5813 48.0006 24.9889C52.4769 23.3966 57.2445 22.7905 61.9769 23.2123L61.6603 26.7645C57.4399 26.3884 53.188 26.9289 49.1959 28.349C45.2038 29.7691 41.5658 32.0353 38.5311 34.9923C35.4963 37.9493 33.1365 41.5272 31.6133 45.4811C30.0901 49.435 29.4395 53.6714 29.7059 57.9002C29.9724 62.129 31.1497 66.2502 33.1572 69.9816C35.1647 73.713 37.955 76.9664 41.3369 79.5191C44.7189 82.0717 48.6125 83.8633 52.7513 84.771C56.8901 85.6788 61.1762 85.6812 65.316 84.7783L66.076 88.2628Z"/>
</mask>
<path d="M66.076 88.2628C61.434 89.2752 56.6281 89.2724 51.9873 88.2546C47.3465 87.2367 42.9805 85.2279 39.1884 82.3656C35.3962 79.5034 32.2675 75.8553 30.0165 71.6713C27.7655 67.4873 26.4454 62.8662 26.1466 58.1245C25.8478 53.3828 26.5774 48.6325 28.2854 44.1991C29.9933 39.7656 32.6394 35.7536 36.0422 32.438C39.445 29.1223 43.5243 26.5813 48.0006 24.9889C52.4769 23.3966 57.2445 22.7905 61.9769 23.2123L61.6603 26.7645C57.4399 26.3884 53.188 26.9289 49.1959 28.349C45.2038 29.7691 41.5658 32.0353 38.5311 34.9923C35.4963 37.9493 33.1365 41.5272 31.6133 45.4811C30.0901 49.435 29.4395 53.6714 29.7059 57.9002C29.9724 62.129 31.1497 66.2502 33.1572 69.9816C35.1647 73.713 37.955 76.9664 41.3369 79.5191C44.7189 82.0717 48.6125 83.8633 52.7513 84.771C56.8901 85.6788 61.1762 85.6812 65.316 84.7783L66.076 88.2628Z" stroke="black" stroke-width="12" mask="url(#path-3-inside-3_517_330)"/>
<mask id="path-4-inside-4_517_330" fill="white">
<path d="M52.4531 35.9812C55.5151 35.149 58.7208 34.9884 61.8506 35.5105C64.9803 36.0325 67.9603 37.2249 70.5864 39.0059C73.2125 40.7868 75.4226 43.1143 77.0654 45.829C78.7082 48.5436 79.7449 51.5813 80.1045 54.7339C80.464 57.8865 80.1379 61.0795 79.1485 64.0944C78.1592 67.1092 76.5299 69.8746 74.3722 72.2012C72.2146 74.5277 69.5796 76.3604 66.6477 77.5738C63.7159 78.7872 60.5564 79.3525 57.3857 79.2311L57.4768 76.8511C60.3045 76.9593 63.1222 76.4551 65.7369 75.373C68.3516 74.2909 70.7016 72.6564 72.6258 70.5815C74.5501 68.5067 76.0031 66.0404 76.8855 63.3517C77.7678 60.663 78.0586 57.8153 77.738 55.0038C77.4173 52.1922 76.4928 49.4831 75.0277 47.0621C73.5626 44.6412 71.5916 42.5654 69.2495 40.9771C66.9075 39.3888 64.2499 38.3254 61.4587 37.8598C58.6674 37.3942 55.8086 37.5374 53.0778 38.2796L52.4531 35.9812Z"/>
</mask>
<path d="M52.4531 35.9812C55.5151 35.149 58.7208 34.9884 61.8506 35.5105C64.9803 36.0325 67.9603 37.2249 70.5864 39.0059C73.2125 40.7868 75.4226 43.1143 77.0654 45.829C78.7082 48.5436 79.7449 51.5813 80.1045 54.7339C80.464 57.8865 80.1379 61.0795 79.1485 64.0944C78.1592 67.1092 76.5299 69.8746 74.3722 72.2012C72.2146 74.5277 69.5796 76.3604 66.6477 77.5738C63.7159 78.7872 60.5564 79.3525 57.3857 79.2311L57.4768 76.8511C60.3045 76.9593 63.1222 76.4551 65.7369 75.373C68.3516 74.2909 70.7016 72.6564 72.6258 70.5815C74.5501 68.5067 76.0031 66.0404 76.8855 63.3517C77.7678 60.663 78.0586 57.8153 77.738 55.0038C77.4173 52.1922 76.4928 49.4831 75.0277 47.0621C73.5626 44.6412 71.5916 42.5654 69.2495 40.9771C66.9075 39.3888 64.2499 38.3254 61.4587 37.8598C58.6674 37.3942 55.8086 37.5374 53.0778 38.2796L52.4531 35.9812Z" stroke="black" stroke-width="12" mask="url(#path-4-inside-4_517_330)"/>
</svg>
