<svg width="18" height="22" viewBox="0 0 18 22" fill="none" xmlns="http://www.w3.org/2000/svg">
<path d="M10.2059 3.81366V20.8162C10.2065 20.9286 10.1849 21.04 10.1424 21.1441C10.0998 21.2481 10.0371 21.3428 9.95779 21.4225C9.87852 21.5022 9.78427 21.5655 9.68047 21.6087C9.57666 21.6518 9.46535 21.674 9.35292 21.674C9.2405 21.674 9.12918 21.6518 9.02538 21.6087C8.92157 21.5655 8.82733 21.5022 8.74806 21.4225C8.66879 21.3428 8.60607 21.2481 8.5635 21.1441C8.52092 21.04 8.49934 20.9286 8.49999 20.8162V3.81366L2.28034 10.4222C2.20362 10.506 2.11032 10.5729 2.00636 10.6187C1.9024 10.6644 1.79005 10.6881 1.67646 10.6881C1.56287 10.6881 1.45053 10.6644 1.34657 10.6187C1.2426 10.5729 1.1493 10.506 1.07259 10.4222C0.912072 10.2475 0.822998 10.0189 0.822998 9.78168C0.822998 9.54444 0.912072 9.31584 1.07259 9.14114L8.74904 0.983612C8.82575 0.899838 8.91905 0.832941 9.02302 0.787174C9.12698 0.741408 9.23933 0.717773 9.35292 0.717773C9.46652 0.717773 9.57887 0.741408 9.68283 0.787174C9.78679 0.832941 9.8801 0.899838 9.95681 0.983612L17.6333 9.14114C17.7933 9.31574 17.8821 9.54398 17.8821 9.78083C17.8821 10.0177 17.7933 10.2459 17.6333 10.4205C17.5566 10.5043 17.4633 10.5712 17.3593 10.617C17.2553 10.6627 17.143 10.6864 17.0294 10.6864C16.9158 10.6864 16.8035 10.6627 16.6995 10.617C16.5955 10.5712 16.5022 10.5043 16.4255 10.4205L10.2059 3.81539V3.81366Z" fill="#020D3C"/>
</svg>
